<?xml version="1.0" standalone="no"?>
<!DOCTYPE svg PUBLIC "-//W3C//DTD SVG 1.1//EN" "http://www.w3.org/Graphics/SVG/1.1/DTD/svg11.dtd" >
<svg xmlns="http://www.w3.org/2000/svg" xmlns:xlink="http://www.w3.org/1999/xlink" version="1.1">
<metadata>
Created by FontForge 20170731 at Wed Jun 13 12:59:37 2018
 By Aleksey,,,
Copyright (c) 2017 by Oliver Jeschke. All rights reserved.
</metadata>
<defs>
<font id="Sequel100Black-65" horiz-adv-x="816" >
  <font-face 
    font-family="Sequel100Black-65"
    font-weight="400"
    font-stretch="extra-expanded"
    units-per-em="1000"
    panose-1="2 11 6 3 5 0 0 2 0 4"
    ascent="800"
    descent="-200"
    x-height="539"
    cap-height="714"
    bbox="-259 -439 1573 1069"
    underline-thickness="50"
    underline-position="-250"
    unicode-range="U+000D-FB02"
  />
<missing-glyph horiz-adv-x="686" 
d="M647 -439h-609v1508h609v-1508zM116 -373h453v1377h-453v-1377zM156 391q10 152 183 152q79 0 128.5 -35.5t49.5 -100.5q0 -39 -18.5 -60t-52.5 -39q-31 -16 -41.5 -25.5t-10.5 -25.5v-3h-118v16q0 37 15.5 58t57.5 46q16 10 24 19t8 22q0 14 -11 23t-32 9
q-22 0 -35 -14.5t-14 -41.5h-133zM265 216h140v-123h-140v123z" />
    <glyph glyph-name="fi" unicode="fi" horiz-adv-x="806" 
d="M337 608q-26 -15 -26 -54q0 -9 1 -15h172v-114h-172v-425h-185v425h-109v114h109v38q0 96 66 134t201 38q62 0 104 -7v-123q-8 1 -26.5 2.5t-41.5 1.5q-67 0 -93 -15zM562 539h184v-539h-184v539zM560 728h188v-116h-188v116z" />
    <glyph glyph-name="fl" unicode="fl" horiz-adv-x="828" 
d="M337 608q-26 -15 -26 -54q0 -9 1 -15h172v-114h-172v-425h-185v425h-109v114h109v38q0 96 66 134t201 38q62 0 104 -7v-123q-8 1 -26.5 2.5t-41.5 1.5q-67 0 -93 -15zM584 724h184v-724h-184v724z" />
    <glyph glyph-name="f_f" unicode="ff" horiz-adv-x="979" 
d="M337 608q-26 -15 -26 -54q0 -9 1 -15h172v-114h-172v-425h-185v425h-109v114h109v38q0 96 66 134t201 38q62 0 104 -7v-123q-8 1 -26.5 2.5t-41.5 1.5q-67 0 -93 -15zM792 608q-26 -15 -26 -54q0 -9 1 -15h172v-114h-172v-425h-185v425h-109v114h109v38q0 96 66 134
t201 38q62 0 104 -7v-123q-8 1 -26.5 2.5t-41.5 1.5q-67 0 -93 -15z" />
    <glyph glyph-name="f_f_i" unicode="ffi" horiz-adv-x="1261" 
d="M337 608q-26 -15 -26 -54q0 -9 1 -15h172v-114h-172v-425h-185v425h-109v114h109v38q0 96 66 134t201 38q62 0 104 -7v-123q-8 1 -26.5 2.5t-41.5 1.5q-67 0 -93 -15zM792 608q-26 -15 -26 -54q0 -9 1 -15h172v-114h-172v-425h-185v425h-109v114h109v38q0 96 66 134
t201 38q62 0 104 -7v-123q-8 1 -26.5 2.5t-41.5 1.5q-67 0 -93 -15zM1017 539h184v-539h-184v539zM1015 728h188v-116h-188v116z" />
    <glyph glyph-name=".notdef" horiz-adv-x="686" 
d="M647 -439h-609v1508h609v-1508zM116 -373h453v1377h-453v-1377zM156 391q10 152 183 152q79 0 128.5 -35.5t49.5 -100.5q0 -39 -18.5 -60t-52.5 -39q-31 -16 -41.5 -25.5t-10.5 -25.5v-3h-118v16q0 37 15.5 58t57.5 46q16 10 24 19t8 22q0 14 -11 23t-32 9
q-22 0 -35 -14.5t-14 -41.5h-133zM265 216h140v-123h-140v123z" />
    <glyph glyph-name=".null" horiz-adv-x="0" 
 />
    <glyph glyph-name="nonmarkingreturn" unicode="&#xd;" horiz-adv-x="139" 
 />
    <glyph glyph-name="space" unicode=" " horiz-adv-x="352" 
 />
    <glyph glyph-name="exclam" unicode="!" horiz-adv-x="360" 
d="M105 237l-29 337v140h208v-140l-29 -337h-150zM80 175h201v-175h-201v175z" />
    <glyph glyph-name="quotedbl" unicode="&#x22;" horiz-adv-x="480" 
d="M38 383v331h152v-331h-152zM290 383v331h152v-331h-152z" />
    <glyph glyph-name="numbersign" unicode="#" horiz-adv-x="732" 
d="M572 416l-31 -133h120l-25 -96h-117l-42 -187h-121l43 187h-140l-43 -187h-121l43 187h-117l24 96h115l31 133h-119l23 98h118l43 186h121l-43 -186h140l43 186h120l-43 -186h117l-24 -98h-115zM451 416h-140l-30 -133h140z" />
    <glyph glyph-name="dollar" unicode="$" horiz-adv-x="877" 
d="M794 83q-44 -49 -127 -70.5t-210 -23.5v-106h-65v106q-179 4 -271 59t-96 189h204q7 -60 47.5 -86t115.5 -31v170l-118 12q-113 11 -171.5 56t-58.5 139q0 110 90 160t258 54v82h65v-82q169 -4 261.5 -55.5t96.5 -170.5h-204q-6 48 -44.5 70.5t-109.5 27.5v-148l153 -14
q113 -10 170.5 -57.5t57.5 -147.5q0 -84 -44 -133zM392 441v142q-143 -4 -143 -76q0 -30 23 -43.5t74 -18.5zM586.5 142q42.5 21 42.5 62q0 36 -25 52t-72 20l-75 8v-165q87 2 129.5 23z" />
    <glyph glyph-name="percent" unicode="%" horiz-adv-x="1121" 
d="M474 511q0 -203 -218 -203t-218 203t218 203t218 -203zM840 700l-441 -700h-118l441 700h118zM318.5 429.5q21.5 24.5 21.5 81.5t-21.5 81.5t-62.5 24.5t-62.5 -24.5t-21.5 -81.5t21.5 -81.5t62.5 -24.5t62.5 24.5zM1083 189q0 -203 -218 -203q-217 0 -217 203t217 203
q218 0 218 -203zM927.5 107.5q21.5 24.5 21.5 81.5t-21.5 81.5t-62.5 24.5q-84 0 -84 -106t84 -106q41 0 62.5 24.5z" />
    <glyph glyph-name="ampersand" unicode="&#x26;" horiz-adv-x="973" 
d="M717 0l-52 44q-109 -57 -255 -57q-173 0 -270 51t-97 160q0 74 39 120t118 72l43 14l-2 2q-50 43 -70.5 76t-20.5 78q0 83 74 126.5t222 43.5q149 0 224 -43.5t75 -126.5q0 -55 -36 -90.5t-101 -60.5l-89 -33l143 -121q26 57 26 123h173q0 -136 -71 -231l175 -147h-248z
M416 462l63 21q35 11 54 27.5t19 41.5q0 29 -25 47.5t-81 18.5q-55 0 -79.5 -19t-24.5 -48q0 -16 14.5 -33t45.5 -44zM552 141l-201 171l-18 -7q-40 -15 -63 -41.5t-23 -59.5q0 -43 42 -69t121 -26q80 0 142 32z" />
    <glyph glyph-name="quotesingle" unicode="'" horiz-adv-x="228" 
d="M38 383v331h152v-331h-152z" />
    <glyph glyph-name="parenleft" unicode="(" horiz-adv-x="409" 
d="M255 78.5q30 -94.5 70.5 -158.5t73.5 -92h-167q-56 54 -94 99t-76 137.5t-38 218.5t38 219t76.5 138.5t93.5 98.5h167q-33 -28 -73.5 -92t-70.5 -158.5t-30 -205.5q0 -110 30 -204.5z" />
    <glyph glyph-name="parenright" unicode=")" horiz-adv-x="409" 
d="M154 78.5q-30 -94.5 -70.5 -158.5t-73.5 -92h167q56 54 94 99t76 137.5t38 218.5t-38 219t-76.5 138.5t-93.5 98.5h-167q33 -28 73.5 -92t70.5 -158.5t30 -205.5q0 -110 -30 -204.5z" />
    <glyph glyph-name="asterisk" unicode="*" horiz-adv-x="506" 
d="M342 492l132 -81l-62 -88l-105 78l2 -131h-113l2 131l-105 -78l-61 88l131 81l-131 81l61 88l105 -77l-2 130h113l-2 -130l105 77l62 -88z" />
    <glyph glyph-name="plus" unicode="+" horiz-adv-x="667" 
d="M598 263h-198v-202h-133v202h-197v126h197v200h133v-200h198v-126z" />
    <glyph glyph-name="comma" unicode="," horiz-adv-x="337" 
d="M272 43q0 -126 -49.5 -180t-157.5 -54v72q89 0 89 119h-89v181h207v-138z" />
    <glyph glyph-name="hyphen" unicode="-" horiz-adv-x="458" 
d="M49 220v137h361v-137h-361z" />
    <glyph glyph-name="period" unicode="." horiz-adv-x="337" 
d="M65 181h207v-181h-207v181z" />
    <glyph glyph-name="slash" unicode="/" horiz-adv-x="493" 
d="M470 714l-296 -714h-150l295 714h151z" />
    <glyph glyph-name="zero" unicode="0" horiz-adv-x="934" 
d="M782 625q109 -93 109 -276t-109 -276t-315 -93q-207 0 -315.5 92.5t-108.5 276.5t108.5 276.5t315.5 92.5q206 0 315 -93zM637 180q56 58 56 169t-56 169t-170 58q-115 0 -171 -58t-56 -169t56 -169t171 -58q114 0 170 58z" />
    <glyph glyph-name="one" unicode="1" horiz-adv-x="507" 
d="M436 0h-189v450h-229v128h48q95 0 141.5 29.5t67.5 90.5h161v-698z" />
    <glyph glyph-name="two" unicode="2" horiz-adv-x="874" 
d="M289 175.5q-31 -19.5 -39 -37.5h573v-138h-788v22q0 93 40.5 155t100.5 97t138 61l171 59q68 23 98.5 45.5t30.5 59.5q0 45 -42 64t-121 19q-86 0 -137.5 -29t-59.5 -99h-211q7 141 107 202.5t291 61.5t286 -47.5t95 -165.5q0 -66 -30 -110.5t-82 -72t-130 -49.5
l-210 -63q-50 -15 -81 -34.5z" />
    <glyph glyph-name="three" unicode="3" horiz-adv-x="875" 
d="M803.5 309q33.5 -40 33.5 -111q0 -80 -40 -127.5t-128.5 -69t-237.5 -21.5q-142 0 -229 25t-129.5 79t-46.5 145h210q6 -60 53.5 -86.5t143.5 -26.5q100 0 148 19.5t48 68.5q0 50 -36 71t-113 21h-148v124h155q66 0 97.5 20t31.5 65q0 43 -47.5 61t-137.5 18
q-83 0 -127.5 -23.5t-52.5 -76.5h-202q8 124 101.5 179t280.5 55q133 0 216.5 -19.5t125.5 -64.5t42 -120q0 -60 -28.5 -97.5t-81.5 -47.5v-6q65 -14 98.5 -54z" />
    <glyph glyph-name="four" unicode="4" horiz-adv-x="861" 
d="M21 151v142l455 405h228v-417h129v-130h-129v-151h-182v151h-501zM522 547h-5l-293 -261v-5h298v266z" />
    <glyph glyph-name="five" unicode="5" horiz-adv-x="868" 
d="M777 567h-531l-7 -127h6q35 22 86 34.5t129 12.5q191 0 279.5 -58.5t88.5 -191.5q0 -91 -41 -147t-128 -83t-227 -27q-203 0 -295.5 55.5t-97.5 170.5h211q8 -46 50.5 -68t131.5 -22q100 0 145.5 27t45.5 92q0 64 -45 91t-142 27q-72 0 -112 -11.5t-69 -29.5h-197l22 386
h697v-131z" />
    <glyph glyph-name="six" unicode="6" horiz-adv-x="895" 
d="M764.5 398.5q90.5 -56.5 90.5 -173.5q0 -121 -95.5 -183t-299.5 -62q-149 0 -240 37.5t-134 117.5t-43 212q0 186 99 278.5t316 92.5q200 0 289 -62.5t97 -151.5h-208q-12 39 -56 60.5t-118 21.5q-106 0 -161.5 -41t-61.5 -147h6q76 57 240 57q189 0 279.5 -56.5z
M304.5 300.5q-49.5 -26.5 -49.5 -80.5q0 -55 50 -82t151 -27q98 0 146 27t48 82q0 54 -48 80.5t-146 26.5q-102 0 -151.5 -26.5z" />
    <glyph glyph-name="seven" unicode="7" horiz-adv-x="824" 
d="M796 698v-75q0 -36 -10 -63t-30 -57q-31 -50 -106 -132q-59 -67 -95.5 -115t-64.5 -112.5t-35 -143.5h-238q8 93 47 171t89 136.5t129 135.5q65 63 99 103v5h-563v147h778z" />
    <glyph glyph-name="eight" unicode="8" horiz-adv-x="903" 
d="M677 697.5q87 -20.5 129 -65.5t42 -118q0 -56 -31 -92.5t-89 -52.5v-6q66 -14 99 -54.5t33 -115.5q0 -77 -41.5 -123.5t-131 -68t-236.5 -21.5q-146 0 -235 21.5t-131 68.5t-42 123q0 74 33.5 115t98.5 55v6q-58 16 -88.5 52.5t-30.5 92.5q0 73 41.5 118t128 65.5
t225.5 20.5t226 -20.5zM303 566q-48 -19 -48 -64t48 -64t148 -19q102 0 149.5 19t47.5 64t-48 64t-149 19q-100 0 -148 -19zM605.5 132.5q46.5 20.5 46.5 71.5q0 52 -46.5 72.5t-154.5 20.5t-154 -20.5t-46 -72.5q0 -51 46.5 -71.5t153.5 -20.5q108 0 154.5 20.5z" />
    <glyph glyph-name="nine" unicode="9" horiz-adv-x="897" 
d="M132 299.5q-91 56.5 -91 173.5q0 121 96 183t300 62q149 0 240 -37.5t134 -117.5t43 -212q0 -186 -99 -278.5t-316 -92.5q-201 0 -289.5 62.5t-97.5 151.5h209q11 -39 55 -60.5t118 -21.5q107 0 162 41t61 147h-5q-77 -57 -240 -57q-189 0 -280 56.5zM592 397.5
q49 26.5 49 80.5q0 55 -49.5 82t-150.5 27q-98 0 -146 -27t-48 -82q0 -54 48 -80.5t146 -26.5q102 0 151 26.5z" />
    <glyph glyph-name="colon" unicode=":" horiz-adv-x="330" 
d="M65 525h200v-174h-200v174zM65 175h200v-175h-200v175z" />
    <glyph glyph-name="semicolon" unicode=";" horiz-adv-x="330" 
d="M65 525h200v-174h-200v174zM265 43q0 -126 -48.5 -180t-151.5 -54v72q42 0 62 31.5t20 87.5h-82v175h200v-132z" />
    <glyph glyph-name="less" unicode="&#x3c;" horiz-adv-x="667" 
d="M69 269l528 -217v135l-332 133v5l332 133v134l-528 -216v-107z" />
    <glyph glyph-name="equal" unicode="=" horiz-adv-x="667" 
d="M598 370h-528v127h528v-127zM598 152h-528v127h528v-127z" />
    <glyph glyph-name="greater" unicode="&#x3e;" horiz-adv-x="667" 
d="M598 269l-528 -217v135l332 133v5l-332 133v134l528 -216v-107z" />
    <glyph glyph-name="question" unicode="?" horiz-adv-x="780" 
d="M27 480q3 136 98.5 193t275.5 57q173 0 263 -48.5t90 -150.5q0 -64 -33 -101t-98 -68l-61 -28q-44 -21 -59 -40.5t-17 -47.5v-9h-181v23q0 59 26.5 92.5t90.5 67.5l61 31q35 18 51 34t16 41q0 35 -37 53t-111 18q-75 0 -121.5 -26.5t-53.5 -90.5h-200zM295 172h201v-172
h-201v172z" />
    <glyph glyph-name="at" unicode="@" horiz-adv-x="1066" 
d="M773 492l-63 -318q-1 -6 -1 -17q0 -12 6 -17.5t21 -5.5q42 0 79 21t61 69t24 123q0 90 -43.5 158t-124.5 105.5t-190 37.5q-104 0 -190.5 -52t-136.5 -143.5t-50 -204.5q0 -108 44.5 -186t125.5 -118.5t187 -40.5q76 0 138 19t122 58h146q-59 -78 -168 -127.5t-242 -49.5
q-140 0 -247.5 54.5t-167.5 156.5t-60 239q0 139 66.5 252.5t182 178.5t254.5 65q137 0 246 -51t170 -139t61 -194q0 -108 -44.5 -180.5t-114.5 -106.5t-148 -34q-49 0 -78.5 16t-35.5 45h-5q-29 -32 -66 -46.5t-83 -14.5q-81 0 -128 48t-47 132q0 58 21.5 114.5t59.5 96.5
q32 33 69.5 50.5t87.5 17.5q46 0 77.5 -17t43.5 -45h6l10 51h125zM449 363q-23 -29 -34.5 -64t-11.5 -70q0 -44 21.5 -67.5t58.5 -23.5q51 0 87 46q23 29 34.5 64t11.5 70q0 45 -21 68t-59 23q-52 0 -87 -46z" />
    <glyph glyph-name="A" unicode="A" horiz-adv-x="978" 
d="M697 130h-418l-63 -130h-208l362 714h240l360 -714h-209zM627 274l-136 278h-6l-135 -278h277z" />
    <glyph glyph-name="B" unicode="B" horiz-adv-x="943" 
d="M867.5 327q31.5 -41 31.5 -120q0 -105 -59 -156t-189 -51h-582v714h568q236 0 236 -184q0 -114 -91 -142v-5q54 -15 85.5 -56zM648.5 446.5q20.5 17.5 20.5 56.5q0 38 -21 55.5t-65 17.5h-326v-147h326q45 0 65.5 17.5zM669.5 156.5q23.5 20.5 23.5 64.5t-23.5 64.5
t-74.5 20.5h-338v-170h338q51 0 74.5 20.5z" />
    <glyph glyph-name="C" unicode="C" horiz-adv-x="991" 
d="M693.5 510.5q-25.5 31.5 -74 51.5t-117.5 20q-121 0 -186.5 -58t-65.5 -167t65.5 -167t186.5 -58q105 0 160.5 42.5t60.5 111.5h226q-4 -147 -120 -227t-327 -80q-216 0 -337.5 95t-121.5 283t121.5 283t337.5 95q139 0 237.5 -35t151 -100.5t56.5 -156.5h-224
q-4 36 -29.5 67.5z" />
    <glyph glyph-name="D" unicode="D" horiz-adv-x="960" 
d="M818.5 629.5q98.5 -84.5 98.5 -272.5t-98.5 -272.5t-292.5 -84.5h-457v714h457q194 0 292.5 -84.5zM257 565v-416h228q111 0 168 49.5t57 158.5t-57 158.5t-168 49.5h-228z" />
    <glyph glyph-name="E" unicode="E" horiz-adv-x="862" 
d="M257 435h521v-135h-521v-156h553v-144h-741v714h729v-144h-541v-135z" />
    <glyph glyph-name="F" unicode="F" horiz-adv-x="845" 
d="M257 564v-157h522v-142h-522v-265h-188v714h731v-150h-543z" />
    <glyph glyph-name="G" unicode="G" horiz-adv-x="1025" 
d="M958 0h-139v91q-49 -58 -122.5 -85t-176.5 -27q-228 0 -352.5 94.5t-124.5 283.5t123 283.5t347 94.5q212 0 321 -71.5t120 -192.5h-223q-12 43 -61 77t-157 34q-128 0 -195.5 -57.5t-67.5 -167.5q0 -114 68.5 -172t202.5 -58q111 0 165.5 39.5t60.5 94.5h-211v131h422
v-392z" />
    <glyph glyph-name="H" unicode="H" horiz-adv-x="970" 
d="M901 714v-714h-188v290h-456v-290h-188v714h188v-273h456v273h188z" />
    <glyph glyph-name="I" unicode="I" horiz-adv-x="325" 
d="M69 0v714h188v-714h-188z" />
    <glyph glyph-name="J" unicode="J" horiz-adv-x="883" 
d="M814 296q0 -171 -102.5 -244t-290.5 -73q-187 0 -288 72.5t-101 244.5v59h188v-60q0 -163 201 -163q96 0 150.5 39t54.5 124v419h188v-418z" />
    <glyph glyph-name="K" unicode="K" horiz-adv-x="944" 
d="M934 0h-237l-263 347l-177 -144v-203h-188v714h188v-313l376 313h254l-310 -251z" />
    <glyph glyph-name="L" unicode="L" horiz-adv-x="848" 
d="M69 0v714h188v-561h548v-153h-736z" />
    <glyph glyph-name="M" unicode="M" horiz-adv-x="1139" 
d="M1070 0h-188v537h-5l-234 -537h-152l-237 544h-6v-544h-179v714h299l197 -471h6l194 471h305v-714z" />
    <glyph glyph-name="N" unicode="N" horiz-adv-x="969" 
d="M901 714v-714h-216l-432 490h-5v-490h-179v714h221l426 -484h5v484h180z" />
    <glyph glyph-name="O" unicode="O" horiz-adv-x="1026" 
d="M859.5 640q123.5 -95 123.5 -283t-123.5 -283t-346.5 -95t-346.5 95t-123.5 283t123.5 283t346.5 95t346.5 -95zM708.5 189.5q67.5 57.5 67.5 167.5t-67.5 167.5t-195.5 57.5t-195.5 -57.5t-67.5 -167.5t67.5 -167.5t195.5 -57.5t195.5 57.5z" />
    <glyph glyph-name="P" unicode="P" horiz-adv-x="921" 
d="M824 658.5q63 -55.5 63 -174.5q0 -120 -63 -175.5t-205 -55.5h-362v-253h-188v714h550q142 0 205 -55.5zM656.5 412q24.5 22 24.5 67q0 46 -24.5 67.5t-78.5 21.5h-321v-178h321q54 0 78.5 22z" />
    <glyph glyph-name="Q" unicode="Q" horiz-adv-x="1026" 
d="M935 159q-48 -81 -139 -125l50 -86l-129 -53l-57 96q-67 -12 -147 -12q-223 0 -346.5 95t-123.5 283t123.5 283t346.5 95t346.5 -95t123.5 -283q0 -117 -48 -198zM705 186q71 57 71 171q0 110 -67.5 167.5t-195.5 57.5t-195.5 -57.5t-67.5 -167.5t67.5 -167.5
t195.5 -57.5q33 0 61 3l-61 102l130 54z" />
    <glyph glyph-name="R" unicode="R" horiz-adv-x="952" 
d="M924 0h-219l-152 253h-296v-253h-188v714h571q141 0 204 -55t63 -171q0 -92 -42.5 -138t-117.5 -62v-7zM677 416q23 20 23 63q0 42 -23 62.5t-73 20.5h-347v-166h347q50 0 73 20z" />
    <glyph glyph-name="S" unicode="S" horiz-adv-x="915" 
d="M581.5 578q-50.5 23 -145.5 23q-91 0 -134 -20t-43 -60q0 -32 24 -45.5t79 -19.5l276 -24q118 -11 178.5 -61t60.5 -154q0 -91 -49.5 -143.5t-142.5 -73.5t-236 -21q-138 0 -229 22.5t-141.5 79.5t-53.5 158h214q8 -71 61.5 -97.5t156.5 -26.5q102 0 151 22t49 67
q0 38 -25.5 54.5t-74.5 21.5l-271 27q-119 12 -180 58t-61 145q0 121 103 173t295 52q193 0 299 -53t110 -184h-214q-6 57 -56.5 80z" />
    <glyph glyph-name="T" unicode="T" horiz-adv-x="891" 
d="M859 559h-320v-559h-188v559h-319v155h827v-155z" />
    <glyph glyph-name="U" unicode="U" horiz-adv-x="965" 
d="M897 714v-420q0 -170 -107.5 -242.5t-306.5 -72.5t-306.5 72.5t-107.5 242.5v420h188v-417q0 -88 59 -126.5t167 -38.5q107 0 166.5 38.5t59.5 126.5v417h188z" />
    <glyph glyph-name="V" unicode="V" horiz-adv-x="923" 
d="M459 208h5l236 506h219l-352 -714h-211l-352 714h220z" />
    <glyph glyph-name="W" unicode="W" horiz-adv-x="1218" 
d="M755 0l-143 489h-5l-144 -489h-229l-226 714h207l140 -496h6l144 496h210l145 -496h5l140 496h205l-228 -714h-227z" />
    <glyph glyph-name="X" unicode="X" horiz-adv-x="933" 
d="M927 0h-248l-213 247l-213 -247h-248l338 377l-304 337h242l186 -217l188 217h239l-305 -337z" />
    <glyph glyph-name="Y" unicode="Y" horiz-adv-x="914" 
d="M551 250v-250h-188v248l-361 466h229l226 -306l229 306h226z" />
    <glyph glyph-name="Z" unicode="Z" horiz-adv-x="882" 
d="M338 155h492v-155h-784v147l491 412h-463v155h755v-147z" />
    <glyph glyph-name="bracketleft" unicode="[" horiz-adv-x="424" 
d="M251 -51h142v-121h-324v911h324v-122h-142v-668z" />
    <glyph glyph-name="backslash" unicode="\" horiz-adv-x="493" 
d="M469 0h-150l-296 714h150z" />
    <glyph glyph-name="bracketright" unicode="]" horiz-adv-x="424" 
d="M173 -51h-142v-121h324v911h-324v-122h142v-668z" />
    <glyph glyph-name="asciicircum" unicode="^" horiz-adv-x="586" 
d="M554 353h-134l-124 229h-6l-124 -229h-134l195 347h132z" />
    <glyph glyph-name="underscore" unicode="_" horiz-adv-x="886" 
d="M888 -165h-890v60h890v-60z" />
    <glyph glyph-name="grave" unicode="`" horiz-adv-x="476" 
d="M324 747l83 -149h-160l-178 149h255z" />
    <glyph glyph-name="a" unicode="a" horiz-adv-x="794" 
d="M738 38q3 -20 12 -32v-6h-181q-7 7 -11 22.5t-4 35.5v18q-78 -96 -272 -96q-110 0 -179 43.5t-69 131.5q0 84 46.5 123.5t128.5 47.5l272 24q32 2 46.5 12t14.5 30q0 25 -30 37t-97 12q-68 0 -104 -14.5t-42 -49.5h-199q4 103 91 143t247 40q109 0 179.5 -13.5t109 -50
t38.5 -103.5v-306q0 -29 3 -49zM551 260q-8 -5 -22 -8.5t-28 -5.5l-194 -23q-40 -5 -60 -20t-20 -45q0 -35 27 -49.5t82 -14.5q89 0 152 34t63 108v24z" />
    <glyph glyph-name="b" unicode="b" horiz-adv-x="841" 
d="M475 553q156 0 241.5 -74.5t85.5 -212.5q0 -137 -85.5 -211.5t-241.5 -74.5q-149 0 -229 86h-5v-66h-181v724h184v-251h6q82 80 225 80zM609 266q0 75 -44.5 113.5t-138.5 38.5q-91 0 -139 -40.5t-48 -111.5q0 -70 48 -111t139 -41q183 0 183 152z" />
    <glyph glyph-name="c" unicode="c" horiz-adv-x="827" 
d="M534 140q37 26 46 69h208q-12 -108 -99.5 -168.5t-275.5 -60.5q-187 0 -280.5 75t-93.5 214q0 141 93.5 216t280.5 75t273.5 -60t100.5 -166h-207q-10 41 -46.5 66t-120.5 25q-181 0 -181 -156q0 -75 44.5 -115t136.5 -40q84 0 121 26z" />
    <glyph glyph-name="d" unicode="d" horiz-adv-x="841" 
d="M597 473v251h184v-724h-181v66h-5q-80 -86 -229 -86q-156 0 -241.5 74.5t-85.5 211.5q0 138 85.5 212.5t241.5 74.5q143 0 225 -80h6zM554 155q48 41 48 111q0 71 -48 111.5t-139 40.5q-94 0 -138.5 -38.5t-44.5 -113.5q0 -152 183 -152q91 0 139 41z" />
    <glyph glyph-name="e" unicode="e" horiz-adv-x="827" 
d="M786 226h-553q8 -64 52.5 -95t131.5 -31q79 0 115.5 21.5t42.5 46.5h206q-20 -188 -364 -188q-190 0 -284 75t-94 215q0 139 93.5 214.5t281.5 75.5q186 0 280 -75.5t94 -214.5q0 -20 -2 -44zM293.5 414.5q-43.5 -24.5 -56.5 -75.5h352q-14 51 -56.5 75.5t-118.5 24.5
q-77 0 -120.5 -24.5z" />
    <glyph glyph-name="f" unicode="f" horiz-adv-x="524" 
d="M337 608q-26 -15 -26 -54q0 -9 1 -15h172v-114h-172v-425h-185v425h-109v114h109v38q0 96 66 134t201 38q62 0 104 -7v-123q-8 1 -26.5 2.5t-41.5 1.5q-67 0 -93 -15z" />
    <glyph glyph-name="g" unicode="g" horiz-adv-x="832" 
d="M772 539v-510q0 -86 -26 -133.5t-102.5 -70.5t-227.5 -23q-145 0 -222.5 23.5t-106 63.5t-32.5 103h206q4 -22 16.5 -36.5t46 -24t94.5 -9.5q72 0 108.5 11t49 33t12.5 63v86h-6q-79 -77 -223 -77q-153 0 -236.5 66.5t-83.5 191.5q0 124 83.5 190.5t236.5 66.5
q149 0 227 -81h5v67h181zM545.5 203.5q46.5 33.5 46.5 92.5q0 58 -46.5 91.5t-136.5 33.5q-177 0 -177 -125q0 -126 177 -126q90 0 136.5 33.5z" />
    <glyph glyph-name="h" unicode="h" 
d="M684.5 502.5q71.5 -50.5 71.5 -151.5v-351h-184v291q0 61 -38.5 89t-112.5 28q-72 0 -124.5 -35.5t-52.5 -111.5v-261h-184v724h184v-253h6q86 82 243 82q120 0 191.5 -50.5z" />
    <glyph glyph-name="i" unicode="i" horiz-adv-x="304" 
d="M60 539h184v-539h-184v539zM58 728h188v-116h-188v116z" />
    <glyph glyph-name="j" unicode="j" horiz-adv-x="306" 
d="M42.5 -38.5q19.5 10.5 19.5 39.5v538h184v-584q0 -60 -22 -93t-71 -46.5t-137 -13.5q-75 0 -106 4v147q24 -2 70 -2q43 0 62.5 10.5zM60 728h188v-116h-188v116z" />
    <glyph glyph-name="k" unicode="k" horiz-adv-x="764" 
d="M755 0h-229l-193 225l-89 -71v-154h-184v724h184v-388l249 203h238l-265 -210z" />
    <glyph glyph-name="l" unicode="l" horiz-adv-x="304" 
d="M60 724h184v-724h-184v724z" />
    <glyph glyph-name="m" unicode="m" horiz-adv-x="1221" 
d="M241 468h5q36 43 95.5 64t128.5 21q158 0 210 -87q41 44 105 65.5t140 21.5q105 0 171 -50.5t66 -150.5v-352h-185v304q0 104 -126 104q-60 0 -104 -31.5t-44 -99.5v-277h-185v304q0 104 -126 104q-60 0 -104 -31.5t-44 -99.5v-277h-184v539h181v-71z" />
    <glyph glyph-name="n" unicode="n" 
d="M241 471h5q92 82 247 82q120 0 191.5 -50.5t71.5 -151.5v-351h-184v291q0 61 -38.5 89t-112.5 28q-72 0 -124.5 -35.5t-52.5 -111.5v-261h-184v539h181v-68z" />
    <glyph glyph-name="o" unicode="o" horiz-adv-x="832" 
d="M699 484.5q94 -75.5 94 -214.5q0 -140 -94 -215t-283 -75t-283 75t-94 215q0 139 94 214.5t283 75.5t283 -75.5zM600 270q0 155 -184 155t-184 -155q0 -156 184 -156t184 156z" />
    <glyph glyph-name="p" unicode="p" horiz-adv-x="841" 
d="M244 60v-245h-184v724h181v-73h5q79 87 229 87q156 0 241.5 -74.5t85.5 -212.5q0 -137 -85.5 -211.5t-241.5 -74.5q-143 0 -225 80h-6zM287 377.5q-48 -40.5 -48 -111.5q0 -70 48 -111t139 -41q183 0 183 152q0 75 -44.5 113.5t-138.5 38.5q-91 0 -139 -40.5z" />
    <glyph glyph-name="q" unicode="q" horiz-adv-x="841" 
d="M366 -20q-156 0 -241.5 74.5t-85.5 211.5q0 138 85.5 212.5t241.5 74.5q150 0 229 -87h5v73h181v-724h-184v245h-6q-82 -80 -225 -80zM276.5 379.5q-44.5 -38.5 -44.5 -113.5q0 -152 183 -152q91 0 139 41t48 111q0 71 -48 111.5t-139 40.5q-94 0 -138.5 -38.5z" />
    <glyph glyph-name="r" unicode="r" horiz-adv-x="602" 
d="M241 539v-72h5q46 44 108.5 65t152.5 21q40 0 68 -5v-175q-52 9 -99 9q-102 0 -167 -37t-65 -139v-206h-184v539h181z" />
    <glyph glyph-name="s" unicode="s" horiz-adv-x="787" 
d="M481 430.5q-39 14.5 -113 14.5q-69 0 -99 -12.5t-30 -36.5q0 -20 15.5 -29t54.5 -12l245 -21q98 -9 146.5 -46.5t48.5 -124.5q0 -73 -40.5 -113t-117.5 -55t-202 -15q-120 0 -197 15.5t-121 58t-47 122.5h204q8 -45 48 -62.5t123 -17.5q80 0 113.5 14t33.5 44
q0 22 -16 32t-53 14l-232 23q-101 11 -152 47t-51 116q0 99 82.5 136.5t249.5 37.5q169 0 259 -39t94 -142h-201q-6 37 -45 51.5z" />
    <glyph glyph-name="t" unicode="t" horiz-adv-x="519" 
d="M480 144v-144q-22 -3 -59 -6t-68 -3q-90 0 -139.5 15.5t-70 51t-20.5 97.5v270h-109v114h109v147h185v-147h174v-114h-174v-237q0 -28 17.5 -39t59.5 -11q55 0 95 6z" />
    <glyph glyph-name="u" unicode="u" 
d="M575 68h-5q-92 -82 -247 -82q-120 0 -191.5 50.5t-71.5 151.5v351h184v-291q0 -61 38.5 -88.5t112.5 -27.5q73 0 125 35t52 112v260h184v-539h-181v68z" />
    <glyph glyph-name="v" unicode="v" horiz-adv-x="797" 
d="M786 539l-286 -539h-203l-286 539h211l173 -354h6l174 354h211z" />
    <glyph glyph-name="w" unicode="w" horiz-adv-x="1172" 
d="M924 0h-200l-133 349h-5l-133 -349h-201l-237 539h205l136 -347h6l132 346h187l135 -346h6l130 347h204z" />
    <glyph glyph-name="x" unicode="x" horiz-adv-x="808" 
d="M793 0h-240l-148 168l-150 -168h-240l268 282l-241 257h232l131 -150l129 150h231l-240 -257z" />
    <glyph glyph-name="y" unicode="y" horiz-adv-x="797" 
d="M486 -25q-37 -70 -74.5 -107t-87 -51.5t-128.5 -14.5q-70 0 -121 3v150q41 -3 98 -3q42 0 65.5 8.5t36.5 31.5l15 29l-279 518h211l173 -354h6l174 354h211z" />
    <glyph glyph-name="z" unicode="z" horiz-adv-x="752" 
d="M33 0v136l378 272h-357v131h654v-134l-379 -274h379v-131h-675z" />
    <glyph glyph-name="braceleft" unicode="{" horiz-adv-x="441" 
d="M277.5 325q-24.5 -30 -66.5 -39v-5q42 -9 66.5 -39.5t24.5 -84.5v-145q0 -32 11 -47.5t49 -15.5h48v-121h-127q-160 0 -160 126v169q0 54 -23 74t-69 20v133q46 0 69 20t23 73v170q0 126 160 126h127v-122h-48q-38 0 -49 -15t-11 -47v-146q0 -54 -24.5 -84z" />
    <glyph glyph-name="bar" unicode="|" horiz-adv-x="313" 
d="M244 -226h-175v1024h175v-1024z" />
    <glyph glyph-name="braceright" unicode="}" horiz-adv-x="441" 
d="M163.5 325q24.5 -30 66.5 -39v-5q-42 -9 -66.5 -39.5t-24.5 -84.5v-145q0 -32 -11 -47.5t-49 -15.5h-48v-121h127q160 0 160 126v169q0 54 23 74t69 20v133q-46 0 -69 20t-23 73v170q0 126 -160 126h-127v-122h48q38 0 49 -15t11 -47v-146q0 -54 24.5 -84z" />
    <glyph glyph-name="asciitilde" unicode="~" horiz-adv-x="667" 
d="M532.5 361q29.5 20 65.5 60v-133q-59 -67 -125 -67q-32 0 -57 8.5t-52 21.5l-72 36q-27 14 -48.5 21.5t-48.5 7.5q-57 0 -125 -85v133q26 34 58 53t67 19q30 0 53.5 -8t51.5 -22l72 -36q27 -13 49.5 -21t51.5 -8q30 0 59.5 20z" />
    <glyph glyph-name="uni00A0" unicode="&#xa0;" horiz-adv-x="139" 
 />
    <glyph glyph-name="exclamdown" unicode="&#xa1;" horiz-adv-x="360" 
d="M281 539v-174h-201v174h201zM284 -35v-140h-208v140l29 337h150z" />
    <glyph glyph-name="cent" unicode="&#xa2;" horiz-adv-x="827" 
d="M697 46.5q-80 -60.5 -251 -66.5v-107h-67v107q-170 7 -255 81.5t-85 207.5q0 134 85 208.5t255 81.5v90h67v-90q169 -6 248.5 -65t92.5 -160h-207q-9 36 -39 60.5t-95 29.5v-308q66 5 96 30t38 63h208q-11 -102 -91 -162.5zM268.5 162q36.5 -39 110.5 -46v308
q-147 -15 -147 -155q0 -68 36.5 -107z" />
    <glyph glyph-name="sterling" unicode="&#xa3;" horiz-adv-x="807" 
d="M698 154.5q42 9.5 82 37.5v-174q-25 -15 -65.5 -22t-83.5 -7q-66 0 -126 20t-122 55q-28 -37 -77 -56t-110 -19q-77 0 -120.5 32.5t-43.5 97.5q0 64 39.5 94.5t101.5 30.5q39 0 76 -16q-6 33 -29 64h-180v77h117q-34 34 -53 67.5t-19 71.5q0 203 328 203q160 0 257 -53.5
t102 -182.5h-196q-15 105 -158 105q-65 0 -101 -21.5t-36 -64.5q0 -25 14 -51t57 -74h227v-77h-170q14 -18 21.5 -35.5t7.5 -38.5q0 -23 -6 -41q101 -32 172 -32q52 0 94 9.5zM230 90q16 15 20 48q-37 21 -59 21q-24 0 -38.5 -12t-14.5 -31q0 -18 14.5 -29.5t38.5 -11.5
q23 0 39 15z" />
    <glyph glyph-name="currency" unicode="&#xa4;" horiz-adv-x="671" 
d="M559 223l62 -61l-78 -70l-60 58q-67 -43 -148 -43t-148 43l-60 -58l-78 70l61 61q-46 65 -46 145t46 145l-61 61l78 70l60 -58q67 43 148 43t148 -43l60 58l79 -70l-63 -61q46 -64 46 -145t-46 -145zM408 237.5q33 18.5 52.5 52.5t19.5 78t-19.5 78t-52.5 52.5t-73 18.5
t-73.5 -18.5t-53 -52.5t-19.5 -78t19.5 -78t53 -52.5t73.5 -18.5t73 18.5z" />
    <glyph glyph-name="yen" unicode="&#xa5;" horiz-adv-x="897" 
d="M673 415h116v-77h-176l-45 -59h221v-77h-248v-202h-185v202h-248v77h221l-46 59h-175v77h115l-221 285h225l222 -300l224 300h222z" />
    <glyph glyph-name="brokenbar" unicode="&#xa6;" horiz-adv-x="313" 
d="M244 361h-175v437h175v-437zM244 -226h-175v436h175v-436z" />
    <glyph glyph-name="section" unicode="&#xa7;" horiz-adv-x="895" 
d="M761 89q19 -34 19 -80q0 -116 -88.5 -161t-257.5 -45q-107 0 -180 19.5t-115 69.5t-44 139h182q3 -61 45.5 -83t118.5 -22q147 0 147 71q0 28 -18.5 40.5t-50.5 20.5l-321 78q-89 22 -131 60.5t-42 113.5q0 104 112 148q-18 29 -18 75q0 107 83.5 152t228.5 45
q143 0 229 -47t89 -161h-183q-6 88 -141 88q-56 0 -87 -16.5t-31 -49.5q0 -24 14.5 -35.5t41.5 -17.5l316 -75q87 -20 132.5 -60.5t45.5 -122.5q0 -99 -96 -144zM602 189q38 -9 59 -19q20 16 20 42q0 33 -23.5 48t-67.5 26l-298 73q-32 7 -59 19q-36 -16 -36 -51
q0 -25 19.5 -37.5t57.5 -21.5z" />
    <glyph glyph-name="dieresis" unicode="&#xa8;" horiz-adv-x="588" 
d="M69 728h175v-116h-175v116zM344 728h175v-116h-175v116z" />
    <glyph glyph-name="copyright" unicode="&#xa9;" horiz-adv-x="859" 
d="M236 34q-89 50 -141 136t-52 187t52 187t141 136t194 50t194 -50t141 -136t52 -187t-52 -187t-141 -136t-194 -50t-194 50zM591.5 88q73.5 42 117 113t43.5 156t-43.5 156t-117 113t-161.5 42t-161.5 -42t-117 -113t-43.5 -156t43.5 -156t117 -113t161.5 -42t161.5 42z
M606.5 220q-23.5 -37 -68 -59t-107.5 -22q-95 0 -153 56.5t-58 162.5q0 104 58 160.5t153 56.5q61 0 104 -20t66 -52.5t26 -70.5h-99q-11 65 -97 65q-51 0 -81.5 -34t-30.5 -105q0 -72 30.5 -106.5t81.5 -34.5q93 0 103 84h99q-3 -44 -26.5 -81z" />
    <glyph glyph-name="ordfeminine" unicode="&#xaa;" horiz-adv-x="511" 
d="M459.5 409.5q1.5 -11.5 8.5 -19.5v-3h-124q-10 8 -10 34v11q-22 -28 -61.5 -43t-89.5 -15q-59 0 -100.5 26.5t-41.5 79.5q0 51 28.5 74.5t80.5 29.5l139 14q21 2 29.5 7t8.5 17q0 27 -64 27q-28 0 -47 -9t-21 -26h-132q5 110 198 110q96 0 146.5 -22t50.5 -79v-184
q0 -18 1.5 -29.5zM332 541q-5 -4 -15.5 -5.5t-14.5 -2.5l-88 -14q-21 -3 -31.5 -11t-10.5 -26q0 -34 52 -34q42 0 75 20t33 61v12zM478 109v-109h-446v109h446z" />
    <glyph glyph-name="guillemotleft" unicode="&#xab;" horiz-adv-x="525" 
d="M239 517v-160l-112 -82v-5l112 -83v-159l-196 147v194zM481 517v-160l-112 -82v-5l112 -83v-159l-196 147v194z" />
    <glyph glyph-name="logicalnot" unicode="&#xac;" horiz-adv-x="667" 
d="M598 154h-134v153h-394v126h528v-279z" />
    <glyph glyph-name="registered" unicode="&#xae;" horiz-adv-x="859" 
d="M624 680q89 -50 141 -136t52 -187t-52 -187t-141 -136t-194 -50t-194 50t-141 136t-52 187t52 187t141 136t194 50t194 -50zM591 88q74 42 117.5 113.5t43.5 155.5t-43.5 155.5t-117.5 113.5t-161 42t-161 -42t-117.5 -113.5t-43.5 -155.5t43.5 -155.5t117.5 -113.5
t161 -42t161 42zM595 353q-23 -32 -67 -45l101 -160h-110l-92 151h-82v-151h-96v418h213q74 0 115 -35.5t41 -97.5q0 -48 -23 -80zM345 370h99q37 0 56.5 16.5t19.5 46.5q0 28 -19.5 44.5t-56.5 16.5h-99v-124z" />
    <glyph glyph-name="macron" unicode="&#xaf;" horiz-adv-x="580" 
d="M69 615v111h442v-111h-442z" />
    <glyph glyph-name="degree" unicode="&#xb0;" horiz-adv-x="369" 
d="M107 427q-35 19 -55.5 53.5t-20.5 79.5t20.5 79.5t55.5 53.5t78 19t78 -19t55.5 -53.5t20.5 -79.5t-20.5 -79.5t-55.5 -53.5t-78 -19t-78 19zM243.5 499.5q21.5 23.5 21.5 60.5t-21.5 60t-58.5 23t-58.5 -23t-21.5 -60t21.5 -60.5t58.5 -23.5t58.5 23.5z" />
    <glyph glyph-name="plusminus" unicode="&#xb1;" horiz-adv-x="667" 
d="M598 310h-198v-159h-133v159h-197v120h197v159h133v-159h198v-120zM598 113v-113h-528v113h528z" />
    <glyph glyph-name="uni00B2" unicode="&#xb2;" horiz-adv-x="571" 
d="M198 406.5q-18 -10.5 -24 -21.5h346v-86h-485v13q0 83 48.5 125t126.5 66l99 32q40 13 57 25.5t17 33.5q0 24 -23.5 34.5t-68.5 10.5q-103 0 -112 -71h-139q4 83 65 120t180 37t177.5 -28.5t58.5 -98.5q0 -58 -37.5 -88.5t-112.5 -50.5l-126 -34q-29 -8 -47 -18.5z" />
    <glyph glyph-name="uni00B3" unicode="&#xb3;" horiz-adv-x="564" 
d="M526 416q0 -48 -24.5 -76t-79 -41t-147.5 -13q-89 0 -142.5 15t-78.5 47t-28 86h138q4 -33 31 -47.5t82 -14.5q57 0 84 10.5t27 37.5q0 28 -20 40t-64 12h-89v77h93q37 0 55 11t18 36q0 24 -27 34.5t-79 10.5q-47 0 -72.5 -13.5t-30.5 -42.5h-132q5 74 61.5 107t173.5 33
q124 0 180.5 -27.5t56.5 -93.5q0 -37 -17 -59t-49 -27v-5q80 -14 80 -97z" />
    <glyph glyph-name="acute" unicode="&#xb4;" horiz-adv-x="476" 
d="M228 598h-159l82 149h256z" />
    <glyph glyph-name="paragraph" unicode="&#xb6;" horiz-adv-x="726" 
d="M657 -184h-128v788h-93v-788h-127v455h-15q-130 0 -196 57t-66 164t66.5 164t197.5 57h361v-897z" />
    <glyph glyph-name="periodcentered" unicode="&#xb7;" horiz-adv-x="307" 
d="M63 244.5q-31 28.5 -31 80.5t31 80.5t89 28.5q59 0 91 -28.5t32 -80.5t-32 -80.5t-91 -28.5q-58 0 -89 28.5z" />
    <glyph glyph-name="cedilla" unicode="&#xb8;" horiz-adv-x="493" 
d="M240 -46q14 3 40 3q64 0 104.5 -23t40.5 -76q0 -55 -51.5 -79t-155.5 -24q-89 0 -149 16v77h5q66 -20 135 -20q34 0 50 6.5t16 24.5q0 17 -16.5 24t-49.5 7q-17 0 -44.5 -2.5t-39.5 -5.5h-5v45l85 102h97z" />
    <glyph glyph-name="uni00B9" unicode="&#xb9;" horiz-adv-x="352" 
d="M281 299h-124v257h-139v83h29q58 0 87 18.5t42 54.5h105v-413z" />
    <glyph glyph-name="ordmasculine" unicode="&#xba;" horiz-adv-x="511" 
d="M422 678.5q56 -45.5 56 -128.5q0 -85 -56 -130.5t-167 -45.5q-112 0 -167.5 45.5t-55.5 130.5q0 83 56 128.5t167 45.5t167 -45.5zM323.5 485.5q23.5 22.5 23.5 64.5q0 40 -23.5 62.5t-68.5 22.5q-46 0 -69 -22t-23 -63q0 -42 23 -64.5t69 -22.5q45 0 68.5 22.5zM478 109
v-109h-446v109h446z" />
    <glyph glyph-name="guillemotright" unicode="&#xbb;" horiz-adv-x="525" 
d="M286 517v-160l112 -82v-5l-112 -83v-159l196 147v194zM44 517v-160l112 -82v-5l-112 -83v-159l196 147v194z" />
    <glyph glyph-name="questiondown" unicode="&#xbf;" horiz-adv-x="780" 
d="M486 367h-201v172h201v-172zM754 60q-3 -136 -98.5 -193t-275.5 -57q-353 0 -353 198q0 65 33 102t98 67l61 28q44 21 59 40.5t17 47.5v9h181v-23q0 -60 -26.5 -93.5t-90.5 -66.5l-61 -30q-35 -18 -51 -34t-16 -41q0 -71 148 -71q76 0 122 26t53 91h200z" />
    <glyph glyph-name="Agrave" unicode="&#xc0;" horiz-adv-x="978" 
d="M697 130h-418l-63 -130h-208l362 714h240l360 -714h-209zM627 274l-136 278h-6l-135 -278h277zM487 925l83 -149h-160l-178 149h255z" />
    <glyph glyph-name="Aacute" unicode="&#xc1;" horiz-adv-x="978" 
d="M697 130h-418l-63 -130h-208l362 714h240l360 -714h-209zM627 274l-136 278h-6l-135 -278h277zM569 776h-159l82 149h256z" />
    <glyph glyph-name="Acircumflex" unicode="&#xc2;" horiz-adv-x="978" 
d="M697 130h-418l-63 -130h-208l362 714h240l360 -714h-209zM627 274l-136 278h-6l-135 -278h277zM493 852h-6l-62 -76h-196l135 149h252l135 -149h-196z" />
    <glyph glyph-name="Atilde" unicode="&#xc3;" horiz-adv-x="978" 
d="M697 130h-418l-63 -130h-208l362 714h240l360 -714h-209zM627 274l-136 278h-6l-135 -278h277zM541 766.5q-26 7.5 -65 22.5q-51 22 -72 22q-18 0 -24 -9t-7 -32h-128q0 55 21 91t53.5 53t67.5 17q24 0 49 -7.5t67 -23.5q21 -8 41 -14.5t31 -6.5q18 0 24.5 9t7.5 32h128
q0 -55 -21.5 -91t-54.5 -53t-68 -17q-24 0 -50 7.5z" />
    <glyph glyph-name="Adieresis" unicode="&#xc4;" horiz-adv-x="978" 
d="M697 130h-418l-63 -130h-208l362 714h240l360 -714h-209zM627 274l-136 278h-6l-135 -278h277zM265 894h175v-116h-175v116zM540 894h175v-116h-175v116z" />
    <glyph glyph-name="Aring" unicode="&#xc5;" horiz-adv-x="978" 
d="M697 130h-418l-63 -130h-208l362 714h240l360 -714h-209zM627 274l-136 278h-6l-135 -278h277zM375 780q-47 36 -47 95t47 95t116 36q70 0 117 -36t47 -95t-47 -95t-117 -36q-69 0 -116 36zM531.5 840q16.5 13 16.5 35t-16.5 35t-40.5 13t-40.5 -13t-16.5 -35t16.5 -35
t40.5 -13t40.5 13z" />
    <glyph glyph-name="AE" unicode="&#xc6;" horiz-adv-x="1458" 
d="M1406 148v-148h-695v130h-386l-93 -130h-224l521 714h864v-149h-502v-129h483v-139h-483v-149h515zM711 274v291h-78l-206 -291h284z" />
    <glyph glyph-name="Ccedilla" unicode="&#xc7;" horiz-adv-x="991" 
d="M845 70.5q-100 -79.5 -283 -90.5l-23 -26q15 3 40 3q64 0 104.5 -23t40.5 -76q0 -55 -51.5 -79t-155.5 -24q-89 0 -149 16v77h5q67 -20 136 -20q33 0 49 6.5t16 24.5q0 17 -16 24t-49 7q-17 0 -44.5 -2.5t-39.5 -5.5h-6v45l45 52q-199 8 -310 103.5t-111 274.5
q0 188 121.5 283t337.5 95q139 0 237.5 -35t151 -100.5t56.5 -156.5h-224q-4 36 -29.5 67.5t-74 51.5t-117.5 20q-121 0 -186.5 -58t-65.5 -167t65.5 -167t186.5 -58q105 0 160.5 42.5t60.5 111.5h226q-4 -136 -104 -215.5z" />
    <glyph glyph-name="Egrave" unicode="&#xc8;" horiz-adv-x="862" 
d="M257 435h521v-135h-521v-156h553v-144h-741v714h729v-144h-541v-135zM430 925l83 -149h-160l-178 149h255z" />
    <glyph glyph-name="Eacute" unicode="&#xc9;" horiz-adv-x="862" 
d="M257 435h521v-135h-521v-156h553v-144h-741v714h729v-144h-541v-135zM513 776h-159l82 149h256z" />
    <glyph glyph-name="Ecircumflex" unicode="&#xca;" horiz-adv-x="862" 
d="M257 435h521v-135h-521v-156h553v-144h-741v714h729v-144h-541v-135zM437 852h-6l-62 -76h-196l135 149h252l135 -149h-196z" />
    <glyph glyph-name="Edieresis" unicode="&#xcb;" horiz-adv-x="862" 
d="M257 435h521v-135h-521v-156h553v-144h-741v714h729v-144h-541v-135zM209 894h175v-116h-175v116zM484 894h175v-116h-175v116z" />
    <glyph glyph-name="Igrave" unicode="&#xcc;" horiz-adv-x="325" 
d="M69 0v714h188v-714h-188zM159 925l83 -149h-160l-178 149h255z" />
    <glyph glyph-name="Iacute" unicode="&#xcd;" horiz-adv-x="325" 
d="M69 0v714h188v-714h-188zM242 776h-159l82 149h256z" />
    <glyph glyph-name="Icircumflex" unicode="&#xce;" horiz-adv-x="325" 
d="M69 0v714h188v-714h-188zM166 852h-6l-62 -76h-196l135 149h252l135 -149h-196z" />
    <glyph glyph-name="Idieresis" unicode="&#xcf;" horiz-adv-x="325" 
d="M69 0v714h188v-714h-188zM-62 894h175v-116h-175v116zM213 894h175v-116h-175v116z" />
    <glyph glyph-name="Eth" unicode="&#xd0;" horiz-adv-x="960" 
d="M818.5 629.5q98.5 -84.5 98.5 -272.5t-98.5 -272.5t-292.5 -84.5h-457v299h-70v117h70v298h457q194 0 292.5 -84.5zM653 198.5q57 49.5 57 158.5t-57 158.5t-168 49.5h-228v-149h199v-117h-199v-150h228q111 0 168 49.5z" />
    <glyph glyph-name="Ntilde" unicode="&#xd1;" horiz-adv-x="969" 
d="M901 714v-714h-216l-432 490h-5v-490h-179v714h221l426 -484h5v484h180zM536 766.5q-26 7.5 -65 22.5q-51 22 -72 22q-18 0 -24 -9t-7 -32h-128q0 55 21 91t53.5 53t67.5 17q24 0 49 -7.5t67 -23.5q21 -8 41 -14.5t31 -6.5q18 0 24.5 9t7.5 32h128q0 -55 -21.5 -91
t-54.5 -53t-68 -17q-24 0 -50 7.5z" />
    <glyph glyph-name="Ograve" unicode="&#xd2;" horiz-adv-x="1026" 
d="M859.5 640q123.5 -95 123.5 -283t-123.5 -283t-346.5 -95t-346.5 95t-123.5 283t123.5 283t346.5 95t346.5 -95zM708.5 189.5q67.5 57.5 67.5 167.5t-67.5 167.5t-195.5 57.5t-195.5 -57.5t-67.5 -167.5t67.5 -167.5t195.5 -57.5t195.5 57.5zM510 925l83 -149h-160
l-178 149h255z" />
    <glyph glyph-name="Oacute" unicode="&#xd3;" horiz-adv-x="1026" 
d="M859.5 640q123.5 -95 123.5 -283t-123.5 -283t-346.5 -95t-346.5 95t-123.5 283t123.5 283t346.5 95t346.5 -95zM708.5 189.5q67.5 57.5 67.5 167.5t-67.5 167.5t-195.5 57.5t-195.5 -57.5t-67.5 -167.5t67.5 -167.5t195.5 -57.5t195.5 57.5zM592 776h-159l82 149h256z
" />
    <glyph glyph-name="Ocircumflex" unicode="&#xd4;" horiz-adv-x="1026" 
d="M859.5 640q123.5 -95 123.5 -283t-123.5 -283t-346.5 -95t-346.5 95t-123.5 283t123.5 283t346.5 95t346.5 -95zM708.5 189.5q67.5 57.5 67.5 167.5t-67.5 167.5t-195.5 57.5t-195.5 -57.5t-67.5 -167.5t67.5 -167.5t195.5 -57.5t195.5 57.5zM516 852h-6l-62 -76h-196
l135 149h252l135 -149h-196z" />
    <glyph glyph-name="Otilde" unicode="&#xd5;" horiz-adv-x="1026" 
d="M859.5 640q123.5 -95 123.5 -283t-123.5 -283t-346.5 -95t-346.5 95t-123.5 283t123.5 283t346.5 95t346.5 -95zM708.5 189.5q67.5 57.5 67.5 167.5t-67.5 167.5t-195.5 57.5t-195.5 -57.5t-67.5 -167.5t67.5 -167.5t195.5 -57.5t195.5 57.5zM564 766.5q-26 7.5 -65 22.5
q-51 22 -72 22q-18 0 -24 -9t-7 -32h-128q0 55 21 91t53.5 53t67.5 17q24 0 49 -7.5t67 -23.5q21 -8 41 -14.5t31 -6.5q18 0 24.5 9t7.5 32h128q0 -55 -21.5 -91t-54.5 -53t-68 -17q-24 0 -50 7.5z" />
    <glyph glyph-name="Odieresis" unicode="&#xd6;" horiz-adv-x="1026" 
d="M859.5 640q123.5 -95 123.5 -283t-123.5 -283t-346.5 -95t-346.5 95t-123.5 283t123.5 283t346.5 95t346.5 -95zM708.5 189.5q67.5 57.5 67.5 167.5t-67.5 167.5t-195.5 57.5t-195.5 -57.5t-67.5 -167.5t67.5 -167.5t195.5 -57.5t195.5 57.5zM288 894h175v-116h-175v116z
M563 894h175v-116h-175v116z" />
    <glyph glyph-name="multiply" unicode="&#xd7;" horiz-adv-x="643" 
d="M411 326l162 -162l-90 -90l-162 162l-161 -162l-90 90l161 162l-161 162l90 90l161 -162l162 162l90 -90z" />
    <glyph glyph-name="Oslash" unicode="&#xd8;" horiz-adv-x="1026" 
d="M983 357q0 -188 -123.5 -283t-346.5 -95q-184 0 -300 64l-96 -83l-71 55l95 81q-98 95 -98 261q0 188 123.5 283t346.5 95q184 0 300 -64l96 83l71 -55l-95 -81q98 -95 98 -261zM317.5 524.5q-67.5 -57.5 -67.5 -167.5q0 -83 37 -135l384 328q-62 32 -158 32
q-128 0 -195.5 -57.5zM708.5 189.5q67.5 57.5 67.5 167.5q0 83 -37 135l-384 -328q62 -32 158 -32q128 0 195.5 57.5z" />
    <glyph glyph-name="Ugrave" unicode="&#xd9;" horiz-adv-x="965" 
d="M897 714v-420q0 -170 -107.5 -242.5t-306.5 -72.5t-306.5 72.5t-107.5 242.5v420h188v-417q0 -88 59 -126.5t167 -38.5q107 0 166.5 38.5t59.5 126.5v417h188zM479 925l83 -149h-160l-178 149h255z" />
    <glyph glyph-name="Uacute" unicode="&#xda;" horiz-adv-x="965" 
d="M897 714v-420q0 -170 -107.5 -242.5t-306.5 -72.5t-306.5 72.5t-107.5 242.5v420h188v-417q0 -88 59 -126.5t167 -38.5q107 0 166.5 38.5t59.5 126.5v417h188zM562 776h-159l82 149h256z" />
    <glyph glyph-name="Ucircumflex" unicode="&#xdb;" horiz-adv-x="965" 
d="M897 714v-420q0 -170 -107.5 -242.5t-306.5 -72.5t-306.5 72.5t-107.5 242.5v420h188v-417q0 -88 59 -126.5t167 -38.5q107 0 166.5 38.5t59.5 126.5v417h188zM486 852h-6l-62 -76h-196l135 149h252l135 -149h-196z" />
    <glyph glyph-name="Udieresis" unicode="&#xdc;" horiz-adv-x="965" 
d="M897 714v-420q0 -170 -107.5 -242.5t-306.5 -72.5t-306.5 72.5t-107.5 242.5v420h188v-417q0 -88 59 -126.5t167 -38.5q107 0 166.5 38.5t59.5 126.5v417h188zM258 894h175v-116h-175v116zM533 894h175v-116h-175v116z" />
    <glyph glyph-name="Yacute" unicode="&#xdd;" horiz-adv-x="914" 
d="M551 250v-250h-188v248l-361 466h229l226 -306l229 306h226zM538 776h-159l82 149h256z" />
    <glyph glyph-name="Thorn" unicode="&#xde;" horiz-adv-x="921" 
d="M824 553.5q63 -55.5 63 -174.5t-63 -175t-205 -56h-362v-148h-188v714h188v-105h362q142 0 205 -55.5zM656.5 307.5q24.5 21.5 24.5 66.5q0 46 -24.5 67.5t-78.5 21.5h-321v-177h321q54 0 78.5 21.5z" />
    <glyph glyph-name="germandbls" unicode="&#xdf;" horiz-adv-x="857" 
d="M662 409q79 -18 117.5 -63t38.5 -129q0 -80 -30.5 -130.5t-105.5 -76.5t-205 -26q-84 0 -150 19v137q38 -10 65.5 -15t66.5 -5q80 0 122.5 24t42.5 79q0 57 -41.5 81.5t-129.5 24.5h-126v114h116q54 0 87.5 20.5t33.5 62.5q0 40 -36.5 58t-106.5 18q-83 0 -129.5 -29.5
t-46.5 -112.5v-460h-185v467q0 99 37.5 158t116.5 85.5t207 26.5q125 0 199 -21.5t105.5 -62t31.5 -102.5q0 -104 -95 -136v-6z" />
    <glyph glyph-name="agrave" unicode="&#xe0;" horiz-adv-x="794" 
d="M738 38q3 -20 12 -32v-6h-181q-7 7 -11 22.5t-4 35.5v18q-78 -96 -272 -96q-110 0 -179 43.5t-69 131.5q0 84 46.5 123.5t128.5 47.5l272 24q32 2 46.5 12t14.5 30q0 25 -30 37t-97 12q-68 0 -104 -14.5t-42 -49.5h-199q4 103 91 143t247 40q109 0 179.5 -13.5t109 -50
t38.5 -103.5v-306q0 -29 3 -49zM551 260q-8 -5 -22 -8.5t-28 -5.5l-194 -23q-40 -5 -60 -20t-20 -45q0 -35 27 -49.5t82 -14.5q89 0 152 34t63 108v24zM404 747l83 -149h-160l-178 149h255z" />
    <glyph glyph-name="aacute" unicode="&#xe1;" horiz-adv-x="794" 
d="M738 38q3 -20 12 -32v-6h-181q-7 7 -11 22.5t-4 35.5v18q-78 -96 -272 -96q-110 0 -179 43.5t-69 131.5q0 84 46.5 123.5t128.5 47.5l272 24q32 2 46.5 12t14.5 30q0 25 -30 37t-97 12q-68 0 -104 -14.5t-42 -49.5h-199q4 103 91 143t247 40q109 0 179.5 -13.5t109 -50
t38.5 -103.5v-306q0 -29 3 -49zM551 260q-8 -5 -22 -8.5t-28 -5.5l-194 -23q-40 -5 -60 -20t-20 -45q0 -35 27 -49.5t82 -14.5q89 0 152 34t63 108v24zM487 598h-159l82 149h256z" />
    <glyph glyph-name="acircumflex" unicode="&#xe2;" horiz-adv-x="794" 
d="M738 38q3 -20 12 -32v-6h-181q-7 7 -11 22.5t-4 35.5v18q-78 -96 -272 -96q-110 0 -179 43.5t-69 131.5q0 84 46.5 123.5t128.5 47.5l272 24q32 2 46.5 12t14.5 30q0 25 -30 37t-97 12q-68 0 -104 -14.5t-42 -49.5h-199q4 103 91 143t247 40q109 0 179.5 -13.5t109 -50
t38.5 -103.5v-306q0 -29 3 -49zM551 260q-8 -5 -22 -8.5t-28 -5.5l-194 -23q-40 -5 -60 -20t-20 -45q0 -35 27 -49.5t82 -14.5q89 0 152 34t63 108v24zM411 674h-6l-62 -76h-196l135 149h252l135 -149h-196z" />
    <glyph glyph-name="atilde" unicode="&#xe3;" horiz-adv-x="794" 
d="M738 38q3 -20 12 -32v-6h-181q-7 7 -11 22.5t-4 35.5v18q-78 -96 -272 -96q-110 0 -179 43.5t-69 131.5q0 84 46.5 123.5t128.5 47.5l272 24q32 2 46.5 12t14.5 30q0 25 -30 37t-97 12q-68 0 -104 -14.5t-42 -49.5h-199q4 103 91 143t247 40q109 0 179.5 -13.5t109 -50
t38.5 -103.5v-306q0 -29 3 -49zM551 260q-8 -5 -22 -8.5t-28 -5.5l-194 -23q-40 -5 -60 -20t-20 -45q0 -35 27 -49.5t82 -14.5q89 0 152 34t63 108v24zM458 589.5q-26 7.5 -65 22.5q-20 8 -40 14.5t-32 6.5q-18 0 -24 -8.5t-7 -32.5h-128q0 55 21 91t53.5 53t67.5 17
q25 0 51 -7.5t65 -22.5q21 -8 41 -14.5t31 -6.5q18 0 24.5 8.5t7.5 31.5h128q0 -55 -21.5 -91t-54.5 -52.5t-68 -16.5q-24 0 -50 7.5z" />
    <glyph glyph-name="adieresis" unicode="&#xe4;" horiz-adv-x="794" 
d="M738 38q3 -20 12 -32v-6h-181q-7 7 -11 22.5t-4 35.5v18q-78 -96 -272 -96q-110 0 -179 43.5t-69 131.5q0 84 46.5 123.5t128.5 47.5l272 24q32 2 46.5 12t14.5 30q0 25 -30 37t-97 12q-68 0 -104 -14.5t-42 -49.5h-199q4 103 91 143t247 40q109 0 179.5 -13.5t109 -50
t38.5 -103.5v-306q0 -29 3 -49zM551 260q-8 -5 -22 -8.5t-28 -5.5l-194 -23q-40 -5 -60 -20t-20 -45q0 -35 27 -49.5t82 -14.5q89 0 152 34t63 108v24zM183 728h175v-116h-175v116zM458 728h175v-116h-175v116z" />
    <glyph glyph-name="aring" unicode="&#xe5;" horiz-adv-x="794" 
d="M738 38q3 -20 12 -32v-6h-181q-7 7 -11 22.5t-4 35.5v18q-78 -96 -272 -96q-110 0 -179 43.5t-69 131.5q0 84 46.5 123.5t128.5 47.5l272 24q32 2 46.5 12t14.5 30q0 25 -30 37t-97 12q-68 0 -104 -14.5t-42 -49.5h-199q4 103 91 143t247 40q109 0 179.5 -13.5t109 -50
t38.5 -103.5v-306q0 -29 3 -49zM551 260q-8 -5 -22 -8.5t-28 -5.5l-194 -23q-40 -5 -60 -20t-20 -45q0 -35 27 -49.5t82 -14.5q89 0 152 34t63 108v24zM292 624q-47 36 -47 95t47 95t116 36q70 0 117 -36t47 -95t-47 -95t-117 -36q-69 0 -116 36zM448.5 683.5
q16.5 13.5 16.5 35.5t-16.5 35t-40.5 13t-40.5 -13t-16.5 -35t16.5 -35.5t40.5 -13.5t40.5 13.5z" />
    <glyph glyph-name="ae" unicode="&#xe6;" horiz-adv-x="1293" 
d="M1252 226h-528q8 -64 50 -95t121 -31q71 0 105 21.5t42 46.5h205q-7 -83 -87 -135.5t-265 -52.5q-97 0 -168.5 28t-112.5 83q-47 -59 -128.5 -85t-182.5 -26q-125 0 -197 43.5t-72 132.5q0 82 46 122t128 48l268 24q30 2 43.5 12t13.5 30q0 49 -125 49q-64 0 -99 -15
t-40 -49h-199q3 103 90.5 143t242.5 40q96 0 160 -15t99 -55q82 70 231 70q178 0 269.5 -75.5t91.5 -214.5q0 -22 -2 -44zM729 339h326q-27 100 -162 100q-137 0 -164 -100zM541 258q-12 -9 -51 -13l-183 -22q-41 -5 -60.5 -20t-19.5 -46q0 -33 26.5 -48t78.5 -15
q86 0 147.5 34t61.5 107v23z" />
    <glyph glyph-name="ccedilla" unicode="&#xe7;" horiz-adv-x="827" 
d="M701 49.5q-76 -59.5 -236 -68.5l-23 -27q15 3 41 3q63 0 103.5 -23t40.5 -76q0 -55 -51.5 -79t-155.5 -24q-89 0 -149 16v77h6q66 -20 135 -20q33 0 49.5 6.5t16.5 24.5q0 17 -16.5 24t-49.5 7q-17 0 -44.5 -2.5t-39.5 -5.5h-5v45l45 54q-165 9 -247 83t-82 205
q0 141 93.5 216t280.5 75t273.5 -60t100.5 -166h-207q-10 41 -46.5 66t-120.5 25q-181 0 -181 -156q0 -75 44.5 -115t136.5 -40q84 0 121 26t46 69h208q-11 -100 -87 -159.5z" />
    <glyph glyph-name="egrave" unicode="&#xe8;" horiz-adv-x="827" 
d="M786 226h-553q8 -64 52.5 -95t131.5 -31q79 0 115.5 21.5t42.5 46.5h206q-20 -188 -364 -188q-190 0 -284 75t-94 215q0 139 93.5 214.5t281.5 75.5q186 0 280 -75.5t94 -214.5q0 -20 -2 -44zM293.5 414.5q-43.5 -24.5 -56.5 -75.5h352q-14 51 -56.5 75.5t-118.5 24.5
q-77 0 -120.5 -24.5zM410 747l83 -149h-160l-178 149h255z" />
    <glyph glyph-name="eacute" unicode="&#xe9;" horiz-adv-x="827" 
d="M786 226h-553q8 -64 52.5 -95t131.5 -31q79 0 115.5 21.5t42.5 46.5h206q-20 -188 -364 -188q-190 0 -284 75t-94 215q0 139 93.5 214.5t281.5 75.5q186 0 280 -75.5t94 -214.5q0 -20 -2 -44zM293.5 414.5q-43.5 -24.5 -56.5 -75.5h352q-14 51 -56.5 75.5t-118.5 24.5
q-77 0 -120.5 -24.5zM493 598h-159l82 149h256z" />
    <glyph glyph-name="ecircumflex" unicode="&#xea;" horiz-adv-x="827" 
d="M786 226h-553q8 -64 52.5 -95t131.5 -31q79 0 115.5 21.5t42.5 46.5h206q-20 -188 -364 -188q-190 0 -284 75t-94 215q0 139 93.5 214.5t281.5 75.5q186 0 280 -75.5t94 -214.5q0 -20 -2 -44zM293.5 414.5q-43.5 -24.5 -56.5 -75.5h352q-14 51 -56.5 75.5t-118.5 24.5
q-77 0 -120.5 -24.5zM417 674h-6l-62 -76h-196l135 149h252l135 -149h-196z" />
    <glyph glyph-name="edieresis" unicode="&#xeb;" horiz-adv-x="827" 
d="M786 226h-553q8 -64 52.5 -95t131.5 -31q79 0 115.5 21.5t42.5 46.5h206q-20 -188 -364 -188q-190 0 -284 75t-94 215q0 139 93.5 214.5t281.5 75.5q186 0 280 -75.5t94 -214.5q0 -20 -2 -44zM293.5 414.5q-43.5 -24.5 -56.5 -75.5h352q-14 51 -56.5 75.5t-118.5 24.5
q-77 0 -120.5 -24.5zM189 728h175v-116h-175v116zM464 728h175v-116h-175v116z" />
    <glyph glyph-name="igrave" unicode="&#xec;" horiz-adv-x="304" 
d="M60 539h184v-539h-184v539zM149 747l83 -149h-160l-178 149h255z" />
    <glyph glyph-name="iacute" unicode="&#xed;" horiz-adv-x="304" 
d="M60 539h184v-539h-184v539zM231 598h-159l82 149h256z" />
    <glyph glyph-name="icircumflex" unicode="&#xee;" horiz-adv-x="304" 
d="M60 539h184v-539h-184v539zM155 674h-6l-62 -76h-196l135 149h252l135 -149h-196z" />
    <glyph glyph-name="idieresis" unicode="&#xef;" horiz-adv-x="304" 
d="M60 539h184v-539h-184v539zM-73 728h175v-116h-175v116zM202 728h175v-116h-175v116z" />
    <glyph glyph-name="eth" unicode="&#xf0;" horiz-adv-x="841" 
d="M802 299q0 -319 -398 -319q-165 0 -265 58.5t-100 191.5t96.5 192t233.5 59q73 0 132 -15.5t95 -45.5l5 2q-29 56 -79.5 94t-132.5 62l-147 -81l-79 51l104 57q-71 13 -175 22l78 116q153 -12 267 -44l112 61l79 -50l-86 -48q260 -111 260 -363zM600 231q0 62 -48 90
t-136 28t-136 -28t-48 -90q0 -120 184 -120t184 120z" />
    <glyph glyph-name="ntilde" unicode="&#xf1;" 
d="M241 471h5q92 82 247 82q120 0 191.5 -50.5t71.5 -151.5v-351h-184v291q0 61 -38.5 89t-112.5 28q-72 0 -124.5 -35.5t-52.5 -111.5v-261h-184v539h181v-68zM459 589.5q-26 7.5 -65 22.5q-20 8 -40 14.5t-32 6.5q-18 0 -24 -8.5t-7 -32.5h-128q0 55 21 91t53.5 53
t67.5 17q25 0 51 -7.5t65 -22.5q21 -8 41 -14.5t31 -6.5q18 0 24.5 8.5t7.5 31.5h128q0 -55 -21.5 -91t-54.5 -52.5t-68 -16.5q-24 0 -50 7.5z" />
    <glyph glyph-name="ograve" unicode="&#xf2;" horiz-adv-x="832" 
d="M699 484.5q94 -75.5 94 -214.5q0 -140 -94 -215t-283 -75t-283 75t-94 215q0 139 94 214.5t283 75.5t283 -75.5zM600 270q0 155 -184 155t-184 -155q0 -156 184 -156t184 156zM413 747l83 -149h-160l-178 149h255z" />
    <glyph glyph-name="oacute" unicode="&#xf3;" horiz-adv-x="832" 
d="M699 484.5q94 -75.5 94 -214.5q0 -140 -94 -215t-283 -75t-283 75t-94 215q0 139 94 214.5t283 75.5t283 -75.5zM600 270q0 155 -184 155t-184 -155q0 -156 184 -156t184 156zM495 598h-159l82 149h256z" />
    <glyph glyph-name="ocircumflex" unicode="&#xf4;" horiz-adv-x="832" 
d="M699 484.5q94 -75.5 94 -214.5q0 -140 -94 -215t-283 -75t-283 75t-94 215q0 139 94 214.5t283 75.5t283 -75.5zM600 270q0 155 -184 155t-184 -155q0 -156 184 -156t184 156zM419 674h-6l-62 -76h-196l135 149h252l135 -149h-196z" />
    <glyph glyph-name="otilde" unicode="&#xf5;" horiz-adv-x="832" 
d="M699 484.5q94 -75.5 94 -214.5q0 -140 -94 -215t-283 -75t-283 75t-94 215q0 139 94 214.5t283 75.5t283 -75.5zM600 270q0 155 -184 155t-184 -155q0 -156 184 -156t184 156zM467 589.5q-26 7.5 -65 22.5q-20 8 -40 14.5t-32 6.5q-18 0 -24 -8.5t-7 -32.5h-128
q0 55 21 91t53.5 53t67.5 17q25 0 51 -7.5t65 -22.5q21 -8 41 -14.5t31 -6.5q18 0 24.5 8.5t7.5 31.5h128q0 -55 -21.5 -91t-54.5 -52.5t-68 -16.5q-24 0 -50 7.5z" />
    <glyph glyph-name="odieresis" unicode="&#xf6;" horiz-adv-x="832" 
d="M699 484.5q94 -75.5 94 -214.5q0 -140 -94 -215t-283 -75t-283 75t-94 215q0 139 94 214.5t283 75.5t283 -75.5zM600 270q0 155 -184 155t-184 -155q0 -156 184 -156t184 156zM191 728h175v-116h-175v116zM466 728h175v-116h-175v116z" />
    <glyph glyph-name="divide" unicode="&#xf7;" horiz-adv-x="667" 
d="M270.5 479.5q-26.5 26.5 -26.5 63.5t26.5 63.5t63.5 26.5t63.5 -26.5t26.5 -63.5t-26.5 -63.5t-63.5 -26.5t-63.5 26.5zM598 263h-528v126h528v-126zM270.5 45.5q-26.5 26.5 -26.5 63.5t26.5 63.5t63.5 26.5t63.5 -26.5t26.5 -63.5t-26.5 -63.5t-63.5 -26.5t-63.5 26.5z
" />
    <glyph glyph-name="oslash" unicode="&#xf8;" horiz-adv-x="832" 
d="M793 270q0 -140 -94 -215t-283 -75q-154 0 -248 51l-64 -50l-57 40l65 52q-73 72 -73 197q0 139 94 214.5t283 75.5q155 0 248 -52l64 51l57 -41l-65 -51q73 -73 73 -197zM232 270q0 -51 21 -87l276 219q-43 23 -113 23q-184 0 -184 -155zM600 270q0 52 -21 86l-276 -219
q43 -23 113 -23q184 0 184 156z" />
    <glyph glyph-name="ugrave" unicode="&#xf9;" 
d="M575 68h-5q-92 -82 -247 -82q-120 0 -191.5 50.5t-71.5 151.5v351h184v-291q0 -61 38.5 -88.5t112.5 -27.5q73 0 125 35t52 112v260h184v-539h-181v68zM405 747l83 -149h-160l-178 149h255z" />
    <glyph glyph-name="uacute" unicode="&#xfa;" 
d="M575 68h-5q-92 -82 -247 -82q-120 0 -191.5 50.5t-71.5 151.5v351h184v-291q0 -61 38.5 -88.5t112.5 -27.5q73 0 125 35t52 112v260h184v-539h-181v68zM487 598h-159l82 149h256z" />
    <glyph glyph-name="ucircumflex" unicode="&#xfb;" 
d="M575 68h-5q-92 -82 -247 -82q-120 0 -191.5 50.5t-71.5 151.5v351h184v-291q0 -61 38.5 -88.5t112.5 -27.5q73 0 125 35t52 112v260h184v-539h-181v68zM411 674h-6l-62 -76h-196l135 149h252l135 -149h-196z" />
    <glyph glyph-name="udieresis" unicode="&#xfc;" 
d="M575 68h-5q-92 -82 -247 -82q-120 0 -191.5 50.5t-71.5 151.5v351h184v-291q0 -61 38.5 -88.5t112.5 -27.5q73 0 125 35t52 112v260h184v-539h-181v68zM183 728h175v-116h-175v116zM458 728h175v-116h-175v116z" />
    <glyph glyph-name="yacute" unicode="&#xfd;" horiz-adv-x="797" 
d="M486 -25q-37 -70 -74.5 -107t-87 -51.5t-128.5 -14.5q-70 0 -121 3v150q41 -3 98 -3q42 0 65.5 8.5t36.5 31.5l15 29l-279 518h211l173 -354h6l174 354h211zM478 598h-159l82 149h256z" />
    <glyph glyph-name="thorn" unicode="&#xfe;" horiz-adv-x="841" 
d="M244 60v-245h-184v909h184v-251h6q82 80 225 80q156 0 241.5 -74.5t85.5 -212.5q0 -137 -85.5 -211.5t-241.5 -74.5q-143 0 -225 80h-6zM287 377.5q-48 -40.5 -48 -111.5q0 -70 48 -111t139 -41q183 0 183 152q0 75 -44.5 113.5t-138.5 38.5q-91 0 -139 -40.5z" />
    <glyph glyph-name="ydieresis" unicode="&#xff;" horiz-adv-x="797" 
d="M486 -25q-37 -70 -74.5 -107t-87 -51.5t-128.5 -14.5q-70 0 -121 3v150q41 -3 98 -3q42 0 65.5 8.5t36.5 31.5l15 29l-279 518h211l173 -354h6l174 354h211zM173 728h175v-116h-175v116zM448 728h175v-116h-175v116z" />
    <glyph glyph-name="Amacron" unicode="&#x100;" horiz-adv-x="978" 
d="M697 130h-418l-63 -130h-208l362 714h240l360 -714h-209zM627 274l-136 278h-6l-135 -278h277zM269 780v111h442v-111h-442z" />
    <glyph glyph-name="amacron" unicode="&#x101;" horiz-adv-x="794" 
d="M738 38q3 -20 12 -32v-6h-181q-7 7 -11 22.5t-4 35.5v18q-78 -96 -272 -96q-110 0 -179 43.5t-69 131.5q0 84 46.5 123.5t128.5 47.5l272 24q32 2 46.5 12t14.5 30q0 25 -30 37t-97 12q-68 0 -104 -14.5t-42 -49.5h-199q4 103 91 143t247 40q109 0 179.5 -13.5t109 -50
t38.5 -103.5v-306q0 -29 3 -49zM551 260q-8 -5 -22 -8.5t-28 -5.5l-194 -23q-40 -5 -60 -20t-20 -45q0 -35 27 -49.5t82 -14.5q89 0 152 34t63 108v24zM187 615v111h442v-111h-442z" />
    <glyph glyph-name="Abreve" unicode="&#x102;" horiz-adv-x="978" 
d="M697 130h-418l-63 -130h-208l362 714h240l360 -714h-209zM627 274l-136 278h-6l-135 -278h277zM678 837q-32 -36 -82 -54t-106 -18t-106 18t-82 54t-33 89h149q6 -50 72 -50q65 0 72 50h149q-1 -53 -33 -89z" />
    <glyph glyph-name="abreve" unicode="&#x103;" horiz-adv-x="794" 
d="M738 38q3 -20 12 -32v-6h-181q-7 7 -11 22.5t-4 35.5v18q-78 -96 -272 -96q-110 0 -179 43.5t-69 131.5q0 84 46.5 123.5t128.5 47.5l272 24q32 2 46.5 12t14.5 30q0 25 -30 37t-97 12q-68 0 -104 -14.5t-42 -49.5h-199q4 103 91 143t247 40q109 0 179.5 -13.5t109 -50
t38.5 -103.5v-306q0 -29 3 -49zM551 260q-8 -5 -22 -8.5t-28 -5.5l-194 -23q-40 -5 -60 -20t-20 -45q0 -35 27 -49.5t82 -14.5q89 0 152 34t63 108v24zM596 659q-32 -36 -82 -54t-106 -18t-106 18t-82 54t-33 89h149q6 -50 72 -50q65 0 72 50h149q-1 -53 -33 -89z" />
    <glyph glyph-name="Aogonek" unicode="&#x104;" horiz-adv-x="978" 
d="M697 130h-418l-63 -130h-208l362 714h240l360 -714h-209zM627 274l-136 278h-6l-135 -278h277zM970 -131v-95q-39 -9 -103 -9q-100 0 -151 28.5t-51 80.5q0 31 24 61t69.5 51.5t106.5 28.5l105 -15q-131 -36 -131 -98q0 -22 18 -31.5t45 -9.5q25 0 68 8z" />
    <glyph glyph-name="aogonek" unicode="&#x105;" horiz-adv-x="794" 
d="M738 38q3 -20 12 -32v-6h-181q-7 7 -11 22.5t-4 35.5v18q-78 -96 -272 -96q-110 0 -179 43.5t-69 131.5q0 84 46.5 123.5t128.5 47.5l272 24q32 2 46.5 12t14.5 30q0 25 -30 37t-97 12q-68 0 -104 -14.5t-42 -49.5h-199q4 103 91 143t247 40q109 0 179.5 -13.5t109 -50
t38.5 -103.5v-306q0 -29 3 -49zM551 260q-8 -5 -22 -8.5t-28 -5.5l-194 -23q-40 -5 -60 -20t-20 -45q0 -35 27 -49.5t82 -14.5q89 0 152 34t63 108v24zM751 -131v-95q-39 -9 -103 -9q-100 0 -151 28.5t-51 80.5q0 31 24 61t69.5 51.5t106.5 28.5l105 -15q-131 -36 -131 -98
q0 -22 18 -31.5t45 -9.5q25 0 68 8z" />
    <glyph glyph-name="Cacute" unicode="&#x106;" horiz-adv-x="991" 
d="M693.5 510.5q-25.5 31.5 -74 51.5t-117.5 20q-121 0 -186.5 -58t-65.5 -167t65.5 -167t186.5 -58q105 0 160.5 42.5t60.5 111.5h226q-4 -147 -120 -227t-327 -80q-216 0 -337.5 95t-121.5 283t121.5 283t337.5 95q139 0 237.5 -35t151 -100.5t56.5 -156.5h-224
q-4 36 -29.5 67.5zM582 776h-159l82 149h256z" />
    <glyph glyph-name="cacute" unicode="&#x107;" horiz-adv-x="827" 
d="M534 140q37 26 46 69h208q-12 -108 -99.5 -168.5t-275.5 -60.5q-187 0 -280.5 75t-93.5 214q0 141 93.5 216t280.5 75t273.5 -60t100.5 -166h-207q-10 41 -46.5 66t-120.5 25q-181 0 -181 -156q0 -75 44.5 -115t136.5 -40q84 0 121 26zM492 598h-159l82 149h256z" />
    <glyph glyph-name="Ccircumflex" unicode="&#x108;" horiz-adv-x="991" 
d="M693.5 510.5q-25.5 31.5 -74 51.5t-117.5 20q-121 0 -186.5 -58t-65.5 -167t65.5 -167t186.5 -58q105 0 160.5 42.5t60.5 111.5h226q-4 -147 -120 -227t-327 -80q-216 0 -337.5 95t-121.5 283t121.5 283t337.5 95q139 0 237.5 -35t151 -100.5t56.5 -156.5h-224
q-4 36 -29.5 67.5zM505 852h-6l-62 -76h-196l135 149h252l135 -149h-196z" />
    <glyph glyph-name="ccircumflex" unicode="&#x109;" horiz-adv-x="827" 
d="M534 140q37 26 46 69h208q-12 -108 -99.5 -168.5t-275.5 -60.5q-187 0 -280.5 75t-93.5 214q0 141 93.5 216t280.5 75t273.5 -60t100.5 -166h-207q-10 41 -46.5 66t-120.5 25q-181 0 -181 -156q0 -75 44.5 -115t136.5 -40q84 0 121 26zM416 674h-6l-62 -76h-196l135 149
h252l135 -149h-196z" />
    <glyph glyph-name="Cdotaccent" unicode="&#x10a;" horiz-adv-x="991" 
d="M693.5 510.5q-25.5 31.5 -74 51.5t-117.5 20q-121 0 -186.5 -58t-65.5 -167t65.5 -167t186.5 -58q105 0 160.5 42.5t60.5 111.5h226q-4 -147 -120 -227t-327 -80q-216 0 -337.5 95t-121.5 283t121.5 283t337.5 95q139 0 237.5 -35t151 -100.5t56.5 -156.5h-224
q-4 36 -29.5 67.5zM408 894h188v-116h-188v116z" />
    <glyph glyph-name="cdotaccent" unicode="&#x10b;" horiz-adv-x="827" 
d="M534 140q37 26 46 69h208q-12 -108 -99.5 -168.5t-275.5 -60.5q-187 0 -280.5 75t-93.5 214q0 141 93.5 216t280.5 75t273.5 -60t100.5 -166h-207q-10 41 -46.5 66t-120.5 25q-181 0 -181 -156q0 -75 44.5 -115t136.5 -40q84 0 121 26zM319 728h188v-116h-188v116z" />
    <glyph glyph-name="Ccaron" unicode="&#x10c;" horiz-adv-x="991" 
d="M693.5 510.5q-25.5 31.5 -74 51.5t-117.5 20q-121 0 -186.5 -58t-65.5 -167t65.5 -167t186.5 -58q105 0 160.5 42.5t60.5 111.5h226q-4 -147 -120 -227t-327 -80q-216 0 -337.5 95t-121.5 283t121.5 283t337.5 95q139 0 237.5 -35t151 -100.5t56.5 -156.5h-224
q-4 36 -29.5 67.5zM763 925l-135 -149h-252l-135 149h196l62 -76h6l62 76h196z" />
    <glyph glyph-name="ccaron" unicode="&#x10d;" horiz-adv-x="827" 
d="M534 140q37 26 46 69h208q-12 -108 -99.5 -168.5t-275.5 -60.5q-187 0 -280.5 75t-93.5 214q0 141 93.5 216t280.5 75t273.5 -60t100.5 -166h-207q-10 41 -46.5 66t-120.5 25q-181 0 -181 -156q0 -75 44.5 -115t136.5 -40q84 0 121 26zM674 747l-135 -149h-252l-135 149
h196l62 -76h6l62 76h196z" />
    <glyph glyph-name="Dcaron" unicode="&#x10e;" horiz-adv-x="960" 
d="M818.5 629.5q98.5 -84.5 98.5 -272.5t-98.5 -272.5t-292.5 -84.5h-457v714h457q194 0 292.5 -84.5zM257 565v-416h228q111 0 168 49.5t57 158.5t-57 158.5t-168 49.5h-228zM722 925l-135 -149h-252l-135 149h196l62 -76h6l62 76h196z" />
    <glyph glyph-name="dcaron" unicode="&#x10f;" horiz-adv-x="1030" 
d="M597 473v251h184v-724h-181v66h-5q-80 -86 -229 -86q-156 0 -241.5 74.5t-85.5 211.5q0 138 85.5 212.5t241.5 74.5q143 0 225 -80h6zM1027 623q0 -53 -14 -81.5t-56.5 -42t-128.5 -13.5v52q56 0 75.5 14t19.5 41h-95v131h199v-101zM554 155q48 41 48 111q0 71 -48 111.5
t-139 40.5q-94 0 -138.5 -38.5t-44.5 -113.5q0 -152 183 -152q91 0 139 41z" />
    <glyph glyph-name="Dcroat" unicode="&#x110;" horiz-adv-x="960" 
d="M818.5 629.5q98.5 -84.5 98.5 -272.5t-98.5 -272.5t-292.5 -84.5h-457v299h-70v117h70v298h457q194 0 292.5 -84.5zM653 198.5q57 49.5 57 158.5t-57 158.5t-168 49.5h-228v-149h199v-117h-199v-150h228q111 0 168 49.5z" />
    <glyph glyph-name="dcroat" unicode="&#x111;" horiz-adv-x="845" 
d="M850 672v-93h-69v-579h-181v66h-5q-80 -86 -229 -86q-156 0 -241.5 74.5t-85.5 211.5q0 138 85.5 212.5t241.5 74.5q143 0 225 -80h6v106h-183v93h183v52h184v-52h69zM554 155q48 41 48 111q0 71 -48 111.5t-139 40.5q-94 0 -138.5 -38.5t-44.5 -113.5q0 -152 183 -152
q91 0 139 41z" />
    <glyph glyph-name="Emacron" unicode="&#x112;" horiz-adv-x="862" 
d="M257 435h521v-135h-521v-156h553v-144h-741v714h729v-144h-541v-135zM213 780v111h442v-111h-442z" />
    <glyph glyph-name="emacron" unicode="&#x113;" horiz-adv-x="827" 
d="M786 226h-553q8 -64 52.5 -95t131.5 -31q79 0 115.5 21.5t42.5 46.5h206q-20 -188 -364 -188q-190 0 -284 75t-94 215q0 139 93.5 214.5t281.5 75.5q186 0 280 -75.5t94 -214.5q0 -20 -2 -44zM293.5 414.5q-43.5 -24.5 -56.5 -75.5h352q-14 51 -56.5 75.5t-118.5 24.5
q-77 0 -120.5 -24.5zM193 615v111h442v-111h-442z" />
    <glyph glyph-name="Ebreve" unicode="&#x114;" horiz-adv-x="862" 
d="M257 435h521v-135h-521v-156h553v-144h-741v714h729v-144h-541v-135zM622 837q-32 -36 -82 -54t-106 -18t-106 18t-82 54t-33 89h149q6 -50 72 -50q65 0 72 50h149q-1 -53 -33 -89z" />
    <glyph glyph-name="ebreve" unicode="&#x115;" horiz-adv-x="827" 
d="M786 226h-553q8 -64 52.5 -95t131.5 -31q79 0 115.5 21.5t42.5 46.5h206q-20 -188 -364 -188q-190 0 -284 75t-94 215q0 139 93.5 214.5t281.5 75.5q186 0 280 -75.5t94 -214.5q0 -20 -2 -44zM293.5 414.5q-43.5 -24.5 -56.5 -75.5h352q-14 51 -56.5 75.5t-118.5 24.5
q-77 0 -120.5 -24.5zM602 659q-32 -36 -82 -54t-106 -18t-106 18t-82 54t-33 89h149q6 -50 72 -50q65 0 72 50h149q-1 -53 -33 -89z" />
    <glyph glyph-name="Edotaccent" unicode="&#x116;" horiz-adv-x="862" 
d="M257 435h521v-135h-521v-156h553v-144h-741v714h729v-144h-541v-135zM340 894h188v-116h-188v116z" />
    <glyph glyph-name="edotaccent" unicode="&#x117;" horiz-adv-x="827" 
d="M786 226h-553q8 -64 52.5 -95t131.5 -31q79 0 115.5 21.5t42.5 46.5h206q-20 -188 -364 -188q-190 0 -284 75t-94 215q0 139 93.5 214.5t281.5 75.5q186 0 280 -75.5t94 -214.5q0 -20 -2 -44zM293.5 414.5q-43.5 -24.5 -56.5 -75.5h352q-14 51 -56.5 75.5t-118.5 24.5
q-77 0 -120.5 -24.5zM320 728h188v-116h-188v116z" />
    <glyph glyph-name="Eogonek" unicode="&#x118;" horiz-adv-x="862" 
d="M257 435h521v-135h-521v-156h553v-144h-741v714h729v-144h-541v-135zM811 -131v-95q-39 -9 -103 -9q-100 0 -151 28.5t-51 80.5q0 31 24 61t69.5 51.5t106.5 28.5l105 -15q-131 -36 -131 -98q0 -22 18 -31.5t45 -9.5q25 0 68 8z" />
    <glyph glyph-name="eogonek" unicode="&#x119;" horiz-adv-x="827" 
d="M786 226h-553q8 -64 52.5 -95t131.5 -31q79 0 115.5 21.5t42.5 46.5h206q-13 -126 -170 -167q-134 -37 -134 -102q0 -20 18 -29t45 -9q25 0 68 8v-95q-39 -9 -103 -9q-100 0 -151 28t-51 78q0 28 21.5 57.5t60.5 51.5q-174 7 -260 81.5t-86 208.5q0 139 93.5 214.5
t281.5 75.5q186 0 280 -75.5t94 -214.5q0 -20 -2 -44zM293.5 414.5q-43.5 -24.5 -56.5 -75.5h352q-14 51 -56.5 75.5t-118.5 24.5q-77 0 -120.5 -24.5z" />
    <glyph glyph-name="Ecaron" unicode="&#x11a;" horiz-adv-x="862" 
d="M257 435h521v-135h-521v-156h553v-144h-741v714h729v-144h-541v-135zM695 925l-135 -149h-252l-135 149h196l62 -76h6l62 76h196z" />
    <glyph glyph-name="ecaron" unicode="&#x11b;" horiz-adv-x="827" 
d="M786 226h-553q8 -64 52.5 -95t131.5 -31q79 0 115.5 21.5t42.5 46.5h206q-20 -188 -364 -188q-190 0 -284 75t-94 215q0 139 93.5 214.5t281.5 75.5q186 0 280 -75.5t94 -214.5q0 -20 -2 -44zM293.5 414.5q-43.5 -24.5 -56.5 -75.5h352q-14 51 -56.5 75.5t-118.5 24.5
q-77 0 -120.5 -24.5zM675 747l-135 -149h-252l-135 149h196l62 -76h6l62 76h196z" />
    <glyph glyph-name="Gcircumflex" unicode="&#x11c;" horiz-adv-x="1025" 
d="M958 0h-139v91q-49 -58 -122.5 -85t-176.5 -27q-228 0 -352.5 94.5t-124.5 283.5t123 283.5t347 94.5q212 0 321 -71.5t120 -192.5h-223q-12 43 -61 77t-157 34q-128 0 -195.5 -57.5t-67.5 -167.5q0 -114 68.5 -172t202.5 -58q111 0 165.5 39.5t60.5 94.5h-211v131h422
v-392zM516 852h-6l-62 -76h-196l135 149h252l135 -149h-196z" />
    <glyph glyph-name="gcircumflex" unicode="&#x11d;" horiz-adv-x="832" 
d="M772 539v-510q0 -86 -26 -133.5t-102.5 -70.5t-227.5 -23q-145 0 -222.5 23.5t-106 63.5t-32.5 103h206q4 -22 16.5 -36.5t46 -24t94.5 -9.5q72 0 108.5 11t49 33t12.5 63v86h-6q-79 -77 -223 -77q-153 0 -236.5 66.5t-83.5 191.5q0 124 83.5 190.5t236.5 66.5
q149 0 227 -81h5v67h181zM545.5 203.5q46.5 33.5 46.5 92.5q0 58 -46.5 91.5t-136.5 33.5q-177 0 -177 -125q0 -126 177 -126q90 0 136.5 33.5zM409 674h-6l-62 -76h-196l135 149h252l135 -149h-196z" />
    <glyph glyph-name="Gbreve" unicode="&#x11e;" horiz-adv-x="1025" 
d="M958 0h-139v91q-49 -58 -122.5 -85t-176.5 -27q-228 0 -352.5 94.5t-124.5 283.5t123 283.5t347 94.5q212 0 321 -71.5t120 -192.5h-223q-12 43 -61 77t-157 34q-128 0 -195.5 -57.5t-67.5 -167.5q0 -114 68.5 -172t202.5 -58q111 0 165.5 39.5t60.5 94.5h-211v131h422
v-392zM701 837q-32 -36 -82 -54t-106 -18t-106 18t-82 54t-33 89h149q6 -50 72 -50q65 0 72 50h149q-1 -53 -33 -89z" />
    <glyph glyph-name="gbreve" unicode="&#x11f;" horiz-adv-x="832" 
d="M772 539v-510q0 -86 -26 -133.5t-102.5 -70.5t-227.5 -23q-145 0 -222.5 23.5t-106 63.5t-32.5 103h206q4 -22 16.5 -36.5t46 -24t94.5 -9.5q72 0 108.5 11t49 33t12.5 63v86h-6q-79 -77 -223 -77q-153 0 -236.5 66.5t-83.5 191.5q0 124 83.5 190.5t236.5 66.5
q149 0 227 -81h5v67h181zM545.5 203.5q46.5 33.5 46.5 92.5q0 58 -46.5 91.5t-136.5 33.5q-177 0 -177 -125q0 -126 177 -126q90 0 136.5 33.5zM594 659q-32 -36 -82 -54t-106 -18t-106 18t-82 54t-33 89h149q6 -50 72 -50q65 0 72 50h149q-1 -53 -33 -89z" />
    <glyph glyph-name="Gdotaccent" unicode="&#x120;" horiz-adv-x="1025" 
d="M958 0h-139v91q-49 -58 -122.5 -85t-176.5 -27q-228 0 -352.5 94.5t-124.5 283.5t123 283.5t347 94.5q212 0 321 -71.5t120 -192.5h-223q-12 43 -61 77t-157 34q-128 0 -195.5 -57.5t-67.5 -167.5q0 -114 68.5 -172t202.5 -58q111 0 165.5 39.5t60.5 94.5h-211v131h422
v-392zM419 894h188v-116h-188v116z" />
    <glyph glyph-name="gdotaccent" unicode="&#x121;" horiz-adv-x="832" 
d="M772 539v-510q0 -86 -26 -133.5t-102.5 -70.5t-227.5 -23q-145 0 -222.5 23.5t-106 63.5t-32.5 103h206q4 -22 16.5 -36.5t46 -24t94.5 -9.5q72 0 108.5 11t49 33t12.5 63v86h-6q-79 -77 -223 -77q-153 0 -236.5 66.5t-83.5 191.5q0 124 83.5 190.5t236.5 66.5
q149 0 227 -81h5v67h181zM545.5 203.5q46.5 33.5 46.5 92.5q0 58 -46.5 91.5t-136.5 33.5q-177 0 -177 -125q0 -126 177 -126q90 0 136.5 33.5zM312 728h188v-116h-188v116z" />
    <glyph glyph-name="Gcommaaccent" unicode="&#x122;" horiz-adv-x="1025" 
d="M958 0h-139v91q-49 -58 -122.5 -85t-176.5 -27q-228 0 -352.5 94.5t-124.5 283.5t123 283.5t347 94.5q212 0 321 -71.5t120 -192.5h-223q-12 43 -61 77t-157 34q-128 0 -195.5 -57.5t-67.5 -167.5q0 -114 68.5 -172t202.5 -58q111 0 165.5 39.5t60.5 94.5h-211v131h422
v-392zM612 -148q0 -54 -12 -81.5t-52 -41.5t-124 -14v52q37 0 55 6.5t23.5 18t5.5 30.5h-84v116h188v-86z" />
    <glyph glyph-name="gcommaaccent" unicode="&#x123;" horiz-adv-x="832" 
d="M306 684q0 50 14 76.5t56.5 40t128.5 13.5v-45q-56 -1 -75 -14.5t-19 -40.5h94v-116h-199v86zM772 539v-510q0 -86 -26 -133.5t-102.5 -70.5t-227.5 -23q-145 0 -222.5 23.5t-106 63.5t-32.5 103h206q4 -22 16.5 -36.5t46 -24t94.5 -9.5q72 0 108.5 11t49 33t12.5 63v86
h-6q-79 -77 -223 -77q-153 0 -236.5 66.5t-83.5 191.5q0 124 83.5 190.5t236.5 66.5q149 0 227 -81h5v67h181zM545.5 203.5q46.5 33.5 46.5 92.5q0 58 -46.5 91.5t-136.5 33.5q-177 0 -177 -125q0 -126 177 -126q90 0 136.5 33.5z" />
    <glyph glyph-name="Hcircumflex" unicode="&#x124;" horiz-adv-x="970" 
d="M901 714v-714h-188v290h-456v-290h-188v714h188v-273h456v273h188zM488 852h-6l-62 -76h-196l135 149h252l135 -149h-196z" />
    <glyph glyph-name="hcircumflex" unicode="&#x125;" 
d="M684.5 502.5q71.5 -50.5 71.5 -151.5v-351h-184v291q0 61 -38.5 89t-112.5 28q-72 0 -124.5 -35.5t-52.5 -111.5v-261h-184v724h184v-253h6q86 82 243 82q120 0 191.5 -50.5zM155 852h-6l-62 -76h-196l135 149h252l135 -149h-196z" />
    <glyph glyph-name="Hbar" unicode="&#x126;" horiz-adv-x="970" 
d="M970 518h-69v-518h-188v290h-456v-290h-188v518h-70v118h70v78h188v-78h456v78h188v-78h69v-118zM713 518h-456v-77h456v77z" />
    <glyph glyph-name="hbar" unicode="&#x127;" horiz-adv-x="820" 
d="M688.5 502.5q71.5 -50.5 71.5 -151.5v-351h-184v291q0 61 -38.5 89t-112.5 28q-72 0 -124.5 -35.5t-52.5 -111.5v-261h-184v579h-69v93h69v52h184v-52h183v-93h-183v-108h6q86 82 243 82q120 0 191.5 -50.5z" />
    <glyph glyph-name="Itilde" unicode="&#x128;" horiz-adv-x="325" 
d="M69 0v714h188v-714h-188zM213 766.5q-26 7.5 -65 22.5q-51 22 -72 22q-18 0 -24 -9t-7 -32h-128q0 55 21 91t53.5 53t67.5 17q24 0 49 -7.5t67 -23.5q21 -8 41 -14.5t31 -6.5q18 0 24.5 9t7.5 32h128q0 -55 -21.5 -91t-54.5 -53t-68 -17q-24 0 -50 7.5z" />
    <glyph glyph-name="itilde" unicode="&#x129;" horiz-adv-x="304" 
d="M60 539h184v-539h-184v539zM203 589.5q-26 7.5 -65 22.5q-20 8 -40 14.5t-32 6.5q-18 0 -24 -8.5t-7 -32.5h-128q0 55 21 91t53.5 53t67.5 17q25 0 51 -7.5t65 -22.5q21 -8 41 -14.5t31 -6.5q18 0 24.5 8.5t7.5 31.5h128q0 -55 -21.5 -91t-54.5 -52.5t-68 -16.5
q-24 0 -50 7.5z" />
    <glyph glyph-name="Imacron" unicode="&#x12a;" horiz-adv-x="325" 
d="M69 0v714h188v-714h-188zM-58 780v111h442v-111h-442z" />
    <glyph glyph-name="imacron" unicode="&#x12b;" horiz-adv-x="304" 
d="M60 539h184v-539h-184v539zM-69 615v111h442v-111h-442z" />
    <glyph glyph-name="Ibreve" unicode="&#x12c;" horiz-adv-x="325" 
d="M69 0v714h188v-714h-188zM351 837q-32 -36 -82 -54t-106 -18t-106 18t-82 54t-33 89h149q6 -50 72 -50q65 0 72 50h149q-1 -53 -33 -89z" />
    <glyph glyph-name="ibreve" unicode="&#x12d;" horiz-adv-x="304" 
d="M60 539h184v-539h-184v539zM309.5 628q-62.5 -41 -157.5 -41q-96 0 -158 41t-63 120h149q6 -50 72 -50q65 0 72 50h149q-1 -79 -63.5 -120z" />
    <glyph glyph-name="Iogonek" unicode="&#x12e;" horiz-adv-x="325" 
d="M69 0v714h188v-714h-188zM257 -131v-95q-39 -9 -103 -9q-100 0 -151 28.5t-51 80.5q0 31 24 61t69.5 51.5t106.5 28.5l105 -15q-131 -36 -131 -98q0 -22 18 -31.5t45 -9.5q25 0 68 8z" />
    <glyph glyph-name="iogonek" unicode="&#x12f;" horiz-adv-x="304" 
d="M60 539h184v-539h-184v539zM58 728h188v-116h-188v116zM245 -131v-95q-39 -9 -103 -9q-100 0 -151 28.5t-51 80.5q0 31 24 61t69.5 51.5t106.5 28.5l105 -15q-131 -36 -131 -98q0 -22 18 -31.5t45 -9.5q25 0 68 8z" />
    <glyph glyph-name="Idotaccent" unicode="&#x130;" horiz-adv-x="325" 
d="M69 0v714h188v-714h-188zM69 894h188v-116h-188v116z" />
    <glyph glyph-name="dotlessi" unicode="&#x131;" horiz-adv-x="304" 
d="M60 539h184v-539h-184v539z" />
    <glyph glyph-name="IJ" unicode="&#x132;" horiz-adv-x="1208" 
d="M69 0v714h188v-714h-188zM1139 296q0 -171 -102.5 -244t-290.5 -73q-187 0 -288 72.5t-101 244.5v59h188v-60q0 -163 201 -163q96 0 150.5 39t54.5 124v419h188v-418z" />
    <glyph glyph-name="ij" unicode="&#x133;" horiz-adv-x="610" 
d="M60 539h184v-539h-184v539zM58 728h188v-116h-188v116zM346.5 -38.5q19.5 10.5 19.5 39.5v538h184v-584q0 -60 -22 -93t-71 -46.5t-137 -13.5q-75 0 -106 4v147q24 -2 70 -2q43 0 62.5 10.5zM364 728h188v-116h-188v116z" />
    <glyph glyph-name="Jcircumflex" unicode="&#x134;" horiz-adv-x="883" 
d="M814 296q0 -171 -102.5 -244t-290.5 -73q-187 0 -288 72.5t-101 244.5v59h188v-60q0 -163 201 -163q96 0 150.5 39t54.5 124v419h188v-418zM723 852h-6l-62 -76h-196l135 149h252l135 -149h-196z" />
    <glyph glyph-name="jcircumflex" unicode="&#x135;" horiz-adv-x="306" 
d="M42.5 -38.5q19.5 10.5 19.5 39.5v538h184v-584q0 -60 -22 -93t-71 -46.5t-137 -13.5q-75 0 -106 4v147q24 -2 70 -2q43 0 62.5 10.5zM157 674h-6l-62 -76h-196l135 149h252l135 -149h-196z" />
    <glyph glyph-name="Kcommaaccent" unicode="&#x136;" horiz-adv-x="944" 
d="M934 0h-237l-263 347l-177 -144v-203h-188v714h188v-313l376 313h254l-310 -251zM571 -148q0 -54 -12 -81.5t-52 -41.5t-124 -14v52q37 0 55 6.5t23.5 18t5.5 30.5h-84v116h188v-86z" />
    <glyph glyph-name="kcommaaccent" unicode="&#x137;" horiz-adv-x="764" 
d="M755 0h-229l-193 225l-89 -71v-154h-184v724h184v-388l249 203h238l-265 -210zM479 -148q0 -54 -12 -81.5t-52 -41.5t-124 -14v52q37 0 55 6.5t23.5 18t5.5 30.5h-84v116h188v-86z" />
    <glyph glyph-name="kgreenlandic" unicode="&#x138;" horiz-adv-x="764" 
d="M755 0h-229l-193 225l-89 -71v-154h-184v539h184v-203l249 203h238l-265 -210z" />
    <glyph glyph-name="Lacute" unicode="&#x139;" horiz-adv-x="848" 
d="M69 0v714h188v-561h548v-153h-736zM242 776h-159l82 149h256z" />
    <glyph glyph-name="lacute" unicode="&#x13a;" horiz-adv-x="304" 
d="M60 724h184v-724h-184v724zM231 776h-159l82 149h256z" />
    <glyph glyph-name="Lcommaaccent" unicode="&#x13b;" horiz-adv-x="848" 
d="M69 0v714h188v-561h548v-153h-736zM531 -148q0 -54 -12 -81.5t-52 -41.5t-124 -14v52q37 0 55 6.5t23.5 18t5.5 30.5h-84v116h188v-86z" />
    <glyph glyph-name="lcommaaccent" unicode="&#x13c;" horiz-adv-x="304" 
d="M60 724h184v-724h-184v724zM246 -148q0 -54 -12 -81.5t-52 -41.5t-124 -14v52q37 0 55 6.5t23.5 18t5.5 30.5h-84v116h188v-86z" />
    <glyph glyph-name="Lcaron" unicode="&#x13d;" horiz-adv-x="848" 
d="M574 608q0 -110 -44.5 -156.5t-146.5 -46.5v62q48 0 68 27t20 77h-88v153h191v-116zM69 0v714h188v-561h548v-153h-736z" />
    <glyph glyph-name="lcaron" unicode="&#x13e;" horiz-adv-x="493" 
d="M60 724h184v-724h-184v724zM490 623q0 -53 -14 -81.5t-56.5 -42t-128.5 -13.5v52q56 0 75.5 14t19.5 41h-95v131h199v-101z" />
    <glyph glyph-name="Ldot" unicode="&#x13f;" horiz-adv-x="843" 
d="M69 0v714h188v-558h543v-156h-731zM434 323.5q-31 28.5 -31 79.5t31 79.5t89 28.5t90 -28.5t32 -79.5t-32 -79.5t-90 -28.5t-89 28.5z" />
    <glyph glyph-name="ldot" unicode="&#x140;" horiz-adv-x="542" 
d="M60 724h184v-724h-184v724zM316 283q-31 28 -31 80q0 51 31.5 79.5t88.5 28.5q58 0 90 -28.5t32 -79.5q0 -52 -32 -80t-90 -28t-89 28z" />
    <glyph glyph-name="Lslash" unicode="&#x141;" horiz-adv-x="853" 
d="M810 153v-153h-736v185l-69 -32v150l69 32v379h188v-290l283 132v-150l-283 -132v-121h548z" />
    <glyph glyph-name="lslash" unicode="&#x142;" horiz-adv-x="315" 
d="M319 415l-69 -37v-378h-185v281l-69 -36v131l69 37v311h185v-214l69 36v-131z" />
    <glyph glyph-name="Nacute" unicode="&#x143;" horiz-adv-x="969" 
d="M901 714v-714h-216l-432 490h-5v-490h-179v714h221l426 -484h5v484h180zM564 776h-159l82 149h256z" />
    <glyph glyph-name="nacute" unicode="&#x144;" 
d="M241 471h5q92 82 247 82q120 0 191.5 -50.5t71.5 -151.5v-351h-184v291q0 61 -38.5 89t-112.5 28q-72 0 -124.5 -35.5t-52.5 -111.5v-261h-184v539h181v-68zM487 598h-159l82 149h256z" />
    <glyph glyph-name="Ncommaaccent" unicode="&#x145;" horiz-adv-x="969" 
d="M901 714v-714h-216l-432 490h-5v-490h-179v714h221l426 -484h5v484h180zM579 -148q0 -54 -12 -81.5t-52 -41.5t-124 -14v52q37 0 55 6.5t23.5 18t5.5 30.5h-84v116h188v-86z" />
    <glyph glyph-name="ncommaaccent" unicode="&#x146;" 
d="M241 471h5q92 82 247 82q120 0 191.5 -50.5t71.5 -151.5v-351h-184v291q0 61 -38.5 89t-112.5 28q-72 0 -124.5 -35.5t-52.5 -111.5v-261h-184v539h181v-68zM502 -148q0 -54 -12 -81.5t-52 -41.5t-124 -14v52q37 0 55 6.5t23.5 18t5.5 30.5h-84v116h188v-86z" />
    <glyph glyph-name="Ncaron" unicode="&#x147;" horiz-adv-x="969" 
d="M901 714v-714h-216l-432 490h-5v-490h-179v714h221l426 -484h5v484h180zM746 925l-135 -149h-252l-135 149h196l62 -76h6l62 76h196z" />
    <glyph glyph-name="ncaron" unicode="&#x148;" 
d="M241 471h5q92 82 247 82q120 0 191.5 -50.5t71.5 -151.5v-351h-184v291q0 61 -38.5 89t-112.5 28q-72 0 -124.5 -35.5t-52.5 -111.5v-261h-184v539h181v-68zM669 747l-135 -149h-252l-135 149h196l62 -76h6l62 76h196z" />
    <glyph glyph-name="napostrophe" unicode="&#x149;" horiz-adv-x="999" 
d="M217 623q0 -53 -14 -81.5t-56.5 -42t-128.5 -13.5v52q56 0 75.5 14t19.5 41h-95v131h199v-101zM423 471h6q91 82 247 82q120 0 191.5 -50.5t71.5 -151.5v-351h-185v291q0 61 -38 89t-112 28q-73 0 -125 -35.5t-52 -111.5v-261h-185v539h181v-68z" />
    <glyph glyph-name="Eng" unicode="&#x14a;" horiz-adv-x="969" 
d="M901 714v-707q0 -204 -307 -204q-152 0 -229 52t-77 149v16h174v-13q0 -38 32.5 -57.5t96.5 -19.5q119 0 129 64l-467 489h-5v-483h-179v714h214l433 -454h5v454h180z" />
    <glyph glyph-name="eng" unicode="&#x14b;" 
d="M684.5 502.5q71.5 -50.5 71.5 -151.5v-396q0 -60 -22 -93t-71 -46.5t-137 -13.5q-75 0 -106 4v147q44 -2 70 -2q43 0 62.5 10.5t19.5 39.5v290q0 61 -38.5 89t-112.5 28q-72 0 -124.5 -35.5t-52.5 -111.5v-261h-184v539h181v-68h5q92 82 247 82q120 0 191.5 -50.5z" />
    <glyph glyph-name="Omacron" unicode="&#x14c;" horiz-adv-x="1026" 
d="M859.5 640q123.5 -95 123.5 -283t-123.5 -283t-346.5 -95t-346.5 95t-123.5 283t123.5 283t346.5 95t346.5 -95zM708.5 189.5q67.5 57.5 67.5 167.5t-67.5 167.5t-195.5 57.5t-195.5 -57.5t-67.5 -167.5t67.5 -167.5t195.5 -57.5t195.5 57.5zM292 780v111h442v-111h-442z
" />
    <glyph glyph-name="omacron" unicode="&#x14d;" horiz-adv-x="832" 
d="M699 484.5q94 -75.5 94 -214.5q0 -140 -94 -215t-283 -75t-283 75t-94 215q0 139 94 214.5t283 75.5t283 -75.5zM600 270q0 155 -184 155t-184 -155q0 -156 184 -156t184 156zM195 615v111h442v-111h-442z" />
    <glyph glyph-name="Obreve" unicode="&#x14e;" horiz-adv-x="1026" 
d="M859.5 640q123.5 -95 123.5 -283t-123.5 -283t-346.5 -95t-346.5 95t-123.5 283t123.5 283t346.5 95t346.5 -95zM708.5 189.5q67.5 57.5 67.5 167.5t-67.5 167.5t-195.5 57.5t-195.5 -57.5t-67.5 -167.5t67.5 -167.5t195.5 -57.5t195.5 57.5zM701 837q-32 -36 -82 -54
t-106 -18t-106 18t-82 54t-33 89h149q6 -50 72 -50q65 0 72 50h149q-1 -53 -33 -89z" />
    <glyph glyph-name="obreve" unicode="&#x14f;" horiz-adv-x="832" 
d="M699 484.5q94 -75.5 94 -214.5q0 -140 -94 -215t-283 -75t-283 75t-94 215q0 139 94 214.5t283 75.5t283 -75.5zM600 270q0 155 -184 155t-184 -155q0 -156 184 -156t184 156zM604 659q-32 -36 -82 -54t-106 -18t-106 18t-82 54t-33 89h149q6 -50 72 -50q65 0 72 50h149
q-1 -53 -33 -89z" />
    <glyph glyph-name="Ohungarumlaut" unicode="&#x150;" horiz-adv-x="1026" 
d="M859.5 640q123.5 -95 123.5 -283t-123.5 -283t-346.5 -95t-346.5 95t-123.5 283t123.5 283t346.5 95t346.5 -95zM708.5 189.5q67.5 57.5 67.5 167.5t-67.5 167.5t-195.5 57.5t-195.5 -57.5t-67.5 -167.5t67.5 -167.5t195.5 -57.5t195.5 57.5zM457 776h-153l72 149h207z
M721 776h-153l73 149h207z" />
    <glyph glyph-name="ohungarumlaut" unicode="&#x151;" horiz-adv-x="832" 
d="M699 484.5q94 -75.5 94 -214.5q0 -140 -94 -215t-283 -75t-283 75t-94 215q0 139 94 214.5t283 75.5t283 -75.5zM600 270q0 155 -184 155t-184 -155q0 -156 184 -156t184 156zM360 598h-153l72 149h207zM624 598h-153l73 149h207z" />
    <glyph glyph-name="OE" unicode="&#x152;" horiz-adv-x="1473" 
d="M1422 148v-148h-670v78h-6q-43 -47 -116 -73t-161 -26q-122 0 -218 42t-152 127t-56 209t56 209t152 127t218 42q88 0 161 -26t116 -73h6v78h657v-149h-478v-129h460v-139h-460v-149h491zM684 194.5q68 56.5 68 162.5q0 107 -68 163t-183 56q-116 0 -183.5 -56
t-67.5 -163q0 -106 67.5 -162.5t183.5 -56.5q115 0 183 56.5z" />
    <glyph glyph-name="oe" unicode="&#x153;" horiz-adv-x="1336" 
d="M1294 226h-527q8 -63 50.5 -94.5t120.5 -31.5q71 0 105.5 21.5t41.5 46.5h205q-6 -82 -85.5 -135t-262.5 -53q-187 0 -272 100q-85 -100 -271 -100q-178 0 -269 75.5t-91 214.5t91.5 214.5t268.5 75.5q185 0 271 -101q84 101 270 101q175 0 266 -76t91 -214q0 -26 -3 -44
zM772 339h326q-27 100 -162 100q-137 0 -164 -100zM530.5 154.5q43.5 40.5 43.5 115.5t-43.5 115t-127.5 40q-85 0 -128 -40t-43 -115t43 -115.5t128 -40.5q84 0 127.5 40.5z" />
    <glyph glyph-name="Racute" unicode="&#x154;" horiz-adv-x="952" 
d="M924 0h-219l-152 253h-296v-253h-188v714h571q141 0 204 -55t63 -171q0 -92 -42.5 -138t-117.5 -62v-7zM677 416q23 20 23 63q0 42 -23 62.5t-73 20.5h-347v-166h347q50 0 73 20zM532 776h-159l82 149h256z" />
    <glyph glyph-name="racute" unicode="&#x155;" horiz-adv-x="602" 
d="M241 539v-72h5q46 44 108.5 65t152.5 21q40 0 68 -5v-175q-52 9 -99 9q-102 0 -167 -37t-65 -139v-206h-184v539h181zM397 598h-159l82 149h256z" />
    <glyph glyph-name="Rcommaaccent" unicode="&#x156;" horiz-adv-x="952" 
d="M924 0h-219l-152 253h-296v-253h-188v714h571q141 0 204 -55t63 -171q0 -92 -42.5 -138t-117.5 -62v-7zM677 416q23 20 23 63q0 42 -23 62.5t-73 20.5h-347v-166h347q50 0 73 20zM575 -148q0 -54 -12 -81.5t-52 -41.5t-124 -14v52q37 0 55 6.5t23.5 18t5.5 30.5h-84v116
h188v-86z" />
    <glyph glyph-name="rcommaaccent" unicode="&#x157;" horiz-adv-x="602" 
d="M241 539v-72h5q46 44 108.5 65t152.5 21q40 0 68 -5v-175q-52 9 -99 9q-102 0 -167 -37t-65 -139v-206h-184v539h181zM246 -148q0 -54 -12 -81.5t-52 -41.5t-124 -14v52q37 0 55 6.5t23.5 18t5.5 30.5h-84v116h188v-86z" />
    <glyph glyph-name="Rcaron" unicode="&#x158;" horiz-adv-x="952" 
d="M924 0h-219l-152 253h-296v-253h-188v714h571q141 0 204 -55t63 -171q0 -92 -42.5 -138t-117.5 -62v-7zM677 416q23 20 23 63q0 42 -23 62.5t-73 20.5h-347v-166h347q50 0 73 20zM713 925l-135 -149h-252l-135 149h196l62 -76h6l62 76h196z" />
    <glyph glyph-name="rcaron" unicode="&#x159;" horiz-adv-x="602" 
d="M241 539v-72h5q46 44 108.5 65t152.5 21q40 0 68 -5v-175q-52 9 -99 9q-102 0 -167 -37t-65 -139v-206h-184v539h181zM578 747l-135 -149h-252l-135 149h196l62 -76h6l62 76h196z" />
    <glyph glyph-name="Sacute" unicode="&#x15a;" horiz-adv-x="915" 
d="M581.5 578q-50.5 23 -145.5 23q-91 0 -134 -20t-43 -60q0 -32 24 -45.5t79 -19.5l276 -24q118 -11 178.5 -61t60.5 -154q0 -91 -49.5 -143.5t-142.5 -73.5t-236 -21q-138 0 -229 22.5t-141.5 79.5t-53.5 158h214q8 -71 61.5 -97.5t156.5 -26.5q102 0 151 22t49 67
q0 38 -25.5 54.5t-74.5 21.5l-271 27q-119 12 -180 58t-61 145q0 121 103 173t295 52q193 0 299 -53t110 -184h-214q-6 57 -56.5 80zM522 776h-159l82 149h256z" />
    <glyph glyph-name="sacute" unicode="&#x15b;" horiz-adv-x="787" 
d="M481 430.5q-39 14.5 -113 14.5q-69 0 -99 -12.5t-30 -36.5q0 -20 15.5 -29t54.5 -12l245 -21q98 -9 146.5 -46.5t48.5 -124.5q0 -73 -40.5 -113t-117.5 -55t-202 -15q-120 0 -197 15.5t-121 58t-47 122.5h204q8 -45 48 -62.5t123 -17.5q80 0 113.5 14t33.5 44
q0 22 -16 32t-53 14l-232 23q-101 11 -152 47t-51 116q0 99 82.5 136.5t249.5 37.5q169 0 259 -39t94 -142h-201q-6 37 -45 51.5zM453 598h-159l82 149h256z" />
    <glyph glyph-name="Scircumflex" unicode="&#x15c;" horiz-adv-x="915" 
d="M581.5 578q-50.5 23 -145.5 23q-91 0 -134 -20t-43 -60q0 -32 24 -45.5t79 -19.5l276 -24q118 -11 178.5 -61t60.5 -154q0 -91 -49.5 -143.5t-142.5 -73.5t-236 -21q-138 0 -229 22.5t-141.5 79.5t-53.5 158h214q8 -71 61.5 -97.5t156.5 -26.5q102 0 151 22t49 67
q0 38 -25.5 54.5t-74.5 21.5l-271 27q-119 12 -180 58t-61 145q0 121 103 173t295 52q193 0 299 -53t110 -184h-214q-6 57 -56.5 80zM446 852h-6l-62 -76h-196l135 149h252l135 -149h-196z" />
    <glyph glyph-name="scircumflex" unicode="&#x15d;" horiz-adv-x="787" 
d="M481 430.5q-39 14.5 -113 14.5q-69 0 -99 -12.5t-30 -36.5q0 -20 15.5 -29t54.5 -12l245 -21q98 -9 146.5 -46.5t48.5 -124.5q0 -73 -40.5 -113t-117.5 -55t-202 -15q-120 0 -197 15.5t-121 58t-47 122.5h204q8 -45 48 -62.5t123 -17.5q80 0 113.5 14t33.5 44
q0 22 -16 32t-53 14l-232 23q-101 11 -152 47t-51 116q0 99 82.5 136.5t249.5 37.5q169 0 259 -39t94 -142h-201q-6 37 -45 51.5zM377 674h-6l-62 -76h-196l135 149h252l135 -149h-196z" />
    <glyph glyph-name="Scedilla" unicode="&#x15e;" horiz-adv-x="915" 
d="M785.5 39q-91.5 -53 -277.5 -59l-22 -26q14 3 40 3q64 0 104.5 -23t40.5 -76q0 -55 -51.5 -79t-155.5 -24q-89 0 -149 16v77h5q66 -20 135 -20q34 0 50 6.5t16 24.5q0 17 -16.5 24t-49.5 7q-17 0 -44.5 -2.5t-39.5 -5.5h-5v45l44 52q-125 3 -207.5 27t-128.5 80.5
t-49 152.5h214q8 -71 61.5 -97.5t156.5 -26.5q102 0 151 22t49 67q0 38 -25.5 54.5t-74.5 21.5l-271 27q-119 12 -180 58t-61 145q0 121 103 173t295 52q193 0 299 -53t110 -184h-214q-6 57 -56.5 80t-145.5 23q-91 0 -134 -20t-43 -60q0 -32 24 -45.5t79 -19.5l276 -24
q118 -11 178.5 -61t60.5 -154q0 -125 -91.5 -178z" />
    <glyph glyph-name="scedilla" unicode="&#x15f;" horiz-adv-x="787" 
d="M715 57q-34 -39 -100.5 -56.5t-171.5 -20.5l-22 -26q13 3 40 3q64 0 104.5 -23t40.5 -76q0 -55 -51.5 -79t-155.5 -24q-89 0 -149 16v77h5q66 -20 135 -20q34 0 50 6.5t16 24.5q0 17 -16.5 24t-49.5 7q-17 0 -44.5 -2.5t-39.5 -5.5h-5v45l45 53q-104 2 -173 19.5
t-108 59.5t-41 117h204q8 -45 48 -62.5t123 -17.5q80 0 113.5 14t33.5 44q0 22 -16 32t-53 14l-232 23q-101 11 -152 47t-51 116q0 99 82.5 136.5t249.5 37.5q169 0 259 -39t94 -142h-201q-6 37 -45 51.5t-113 14.5q-69 0 -99 -12.5t-30 -36.5q0 -20 15.5 -29t54.5 -12
l245 -21q98 -9 146.5 -46.5t48.5 -124.5q0 -67 -34 -106z" />
    <glyph glyph-name="Scaron" unicode="&#x160;" horiz-adv-x="915" 
d="M581.5 578q-50.5 23 -145.5 23q-91 0 -134 -20t-43 -60q0 -32 24 -45.5t79 -19.5l276 -24q118 -11 178.5 -61t60.5 -154q0 -91 -49.5 -143.5t-142.5 -73.5t-236 -21q-138 0 -229 22.5t-141.5 79.5t-53.5 158h214q8 -71 61.5 -97.5t156.5 -26.5q102 0 151 22t49 67
q0 38 -25.5 54.5t-74.5 21.5l-271 27q-119 12 -180 58t-61 145q0 121 103 173t295 52q193 0 299 -53t110 -184h-214q-6 57 -56.5 80zM704 925l-135 -149h-252l-135 149h196l62 -76h6l62 76h196z" />
    <glyph glyph-name="scaron" unicode="&#x161;" horiz-adv-x="787" 
d="M481 430.5q-39 14.5 -113 14.5q-69 0 -99 -12.5t-30 -36.5q0 -20 15.5 -29t54.5 -12l245 -21q98 -9 146.5 -46.5t48.5 -124.5q0 -73 -40.5 -113t-117.5 -55t-202 -15q-120 0 -197 15.5t-121 58t-47 122.5h204q8 -45 48 -62.5t123 -17.5q80 0 113.5 14t33.5 44
q0 22 -16 32t-53 14l-232 23q-101 11 -152 47t-51 116q0 99 82.5 136.5t249.5 37.5q169 0 259 -39t94 -142h-201q-6 37 -45 51.5zM635 747l-135 -149h-252l-135 149h196l62 -76h6l62 76h196z" />
    <glyph glyph-name="uni0162" unicode="&#x162;" horiz-adv-x="891" 
d="M502 0l-38 -46q13 3 40 3q64 0 104.5 -23t40.5 -76q0 -55 -51.5 -79t-155.5 -24q-89 0 -149 16v77h5q66 -20 135 -20q34 0 50 6.5t16 24.5q0 17 -16.5 24t-49.5 7q-17 0 -44.5 -2.5t-39.5 -5.5h-5v45l61 73h-54v559h-319v155h827v-155h-320v-559h-37z" />
    <glyph glyph-name="uni0163" unicode="&#x163;" horiz-adv-x="524" 
d="M460.5 -66q40.5 -23 40.5 -76q0 -55 -51.5 -79t-155.5 -24q-89 0 -149 16v77h5q66 -20 135 -20q34 0 50 6.5t16 24.5q0 17 -16.5 24t-49.5 7q-17 0 -44.5 -2.5t-39.5 -5.5h-5v45l58 70q-73 12 -102 48.5t-29 109.5v270h-109v114h109v147h185v-147h174v-114h-174v-237
q0 -28 17.5 -39t59.5 -11q55 0 95 6v-144q-22 -3 -59 -6t-68 -3h-7l-30 -37q14 3 40 3q64 0 104.5 -23z" />
    <glyph glyph-name="Tcaron" unicode="&#x164;" horiz-adv-x="891" 
d="M859 559h-320v-559h-188v559h-319v155h827v-155zM706 925l-135 -149h-252l-135 149h196l62 -76h6l62 76h196z" />
    <glyph glyph-name="tcaron" unicode="&#x165;" horiz-adv-x="520" 
d="M554 716q0 -50 -14 -76.5t-56.5 -40t-128.5 -13.5v45q56 1 75.5 15t19.5 40h-95v116h199v-86zM480 144v-144q-22 -3 -59 -6t-68 -3q-90 0 -139.5 15.5t-70 51t-20.5 97.5v270h-109v114h109v147h185v-147h174v-114h-174v-237q0 -28 17.5 -39t59.5 -11q55 0 95 6z" />
    <glyph glyph-name="Tbar" unicode="&#x166;" horiz-adv-x="891" 
d="M539 559v-177h145v-123h-145v-259h-188v259h-145v123h145v177h-319v155h827v-155h-320z" />
    <glyph glyph-name="tbar" unicode="&#x167;" horiz-adv-x="519" 
d="M308 425v-67h174v-93h-174v-77q0 -28 17.5 -39t59.5 -11q55 0 95 6v-144q-22 -3 -59 -6t-68 -3q-90 0 -139.5 15.5t-70 51t-20.5 97.5v110h-109v93h109v67h-109v114h109v147h185v-147h174v-114h-174z" />
    <glyph glyph-name="Utilde" unicode="&#x168;" horiz-adv-x="965" 
d="M897 714v-420q0 -170 -107.5 -242.5t-306.5 -72.5t-306.5 72.5t-107.5 242.5v420h188v-417q0 -88 59 -126.5t167 -38.5q107 0 166.5 38.5t59.5 126.5v417h188zM533 766.5q-26 7.5 -65 22.5q-51 22 -72 22q-18 0 -24 -9t-7 -32h-128q0 55 21 91t53.5 53t67.5 17
q24 0 49 -7.5t67 -23.5q21 -8 41 -14.5t31 -6.5q18 0 24.5 9t7.5 32h128q0 -55 -21.5 -91t-54.5 -53t-68 -17q-24 0 -50 7.5z" />
    <glyph glyph-name="utilde" unicode="&#x169;" 
d="M575 68h-5q-92 -82 -247 -82q-120 0 -191.5 50.5t-71.5 151.5v351h184v-291q0 -61 38.5 -88.5t112.5 -27.5q73 0 125 35t52 112v260h184v-539h-181v68zM459 589.5q-26 7.5 -65 22.5q-20 8 -40 14.5t-32 6.5q-18 0 -24 -8.5t-7 -32.5h-128q0 55 21 91t53.5 53t67.5 17
q25 0 51 -7.5t65 -22.5q21 -8 41 -14.5t31 -6.5q18 0 24.5 8.5t7.5 31.5h128q0 -55 -21.5 -91t-54.5 -52.5t-68 -16.5q-24 0 -50 7.5z" />
    <glyph glyph-name="Umacron" unicode="&#x16a;" horiz-adv-x="965" 
d="M897 714v-420q0 -170 -107.5 -242.5t-306.5 -72.5t-306.5 72.5t-107.5 242.5v420h188v-417q0 -88 59 -126.5t167 -38.5q107 0 166.5 38.5t59.5 126.5v417h188zM262 780v111h442v-111h-442z" />
    <glyph glyph-name="umacron" unicode="&#x16b;" 
d="M575 68h-5q-92 -82 -247 -82q-120 0 -191.5 50.5t-71.5 151.5v351h184v-291q0 -61 38.5 -88.5t112.5 -27.5q73 0 125 35t52 112v260h184v-539h-181v68zM187 615v111h442v-111h-442z" />
    <glyph glyph-name="Ubreve" unicode="&#x16c;" horiz-adv-x="965" 
d="M897 714v-420q0 -170 -107.5 -242.5t-306.5 -72.5t-306.5 72.5t-107.5 242.5v420h188v-417q0 -88 59 -126.5t167 -38.5q107 0 166.5 38.5t59.5 126.5v417h188zM671 837q-32 -36 -82 -54t-106 -18t-106 18t-82 54t-33 89h149q6 -50 72 -50q65 0 72 50h149q-1 -53 -33 -89z
" />
    <glyph glyph-name="ubreve" unicode="&#x16d;" 
d="M575 68h-5q-92 -82 -247 -82q-120 0 -191.5 50.5t-71.5 151.5v351h184v-291q0 -61 38.5 -88.5t112.5 -27.5q73 0 125 35t52 112v260h184v-539h-181v68zM565.5 628q-62.5 -41 -157.5 -41q-96 0 -158 41t-63 120h149q6 -50 72 -50q65 0 72 50h149q-1 -79 -63.5 -120z" />
    <glyph glyph-name="Uring" unicode="&#x16e;" horiz-adv-x="965" 
d="M897 714v-420q0 -170 -107.5 -242.5t-306.5 -72.5t-306.5 72.5t-107.5 242.5v420h188v-417q0 -88 59 -126.5t167 -38.5q107 0 166.5 38.5t59.5 126.5v417h188zM367 780q-47 36 -47 95t47 95t116 36q70 0 117 -36t47 -95t-47 -95t-117 -36q-69 0 -116 36zM523.5 840
q16.5 13 16.5 35t-16.5 35t-40.5 13t-40.5 -13t-16.5 -35t16.5 -35t40.5 -13t40.5 13z" />
    <glyph glyph-name="uring" unicode="&#x16f;" 
d="M575 68h-5q-92 -82 -247 -82q-120 0 -191.5 50.5t-71.5 151.5v351h184v-291q0 -61 38.5 -88.5t112.5 -27.5q73 0 125 35t52 112v260h184v-539h-181v68zM292 624q-47 36 -47 95t47 95t116 36q70 0 117 -36t47 -95t-47 -95t-117 -36q-69 0 -116 36zM448.5 683.5
q16.5 13.5 16.5 35.5t-16.5 35t-40.5 13t-40.5 -13t-16.5 -35t16.5 -35.5t40.5 -13.5t40.5 13.5z" />
    <glyph glyph-name="Uhungarumlaut" unicode="&#x170;" horiz-adv-x="965" 
d="M897 714v-420q0 -170 -107.5 -242.5t-306.5 -72.5t-306.5 72.5t-107.5 242.5v420h188v-417q0 -88 59 -126.5t167 -38.5q107 0 166.5 38.5t59.5 126.5v417h188zM427 776h-153l72 149h207zM691 776h-153l73 149h207z" />
    <glyph glyph-name="uhungarumlaut" unicode="&#x171;" 
d="M575 68h-5q-92 -82 -247 -82q-120 0 -191.5 50.5t-71.5 151.5v351h184v-291q0 -61 38.5 -88.5t112.5 -27.5q73 0 125 35t52 112v260h184v-539h-181v68zM352 598h-153l72 149h207zM616 598h-153l73 149h207z" />
    <glyph glyph-name="Uogonek" unicode="&#x172;" horiz-adv-x="965" 
d="M897 714v-420q0 -122 -56.5 -193t-162.5 -100q-69 -19 -99.5 -47t-30.5 -55q0 -20 18 -29t44 -9q25 0 68 8v-95q-37 -9 -102 -9q-100 0 -151.5 28t-51.5 78q0 28 21 57t60 51q-188 4 -286.5 79t-98.5 236v420h188v-417q0 -88 59 -126.5t167 -38.5q107 0 166.5 38.5
t59.5 126.5v417h188z" />
    <glyph glyph-name="uogonek" unicode="&#x173;" 
d="M575 68h-5q-92 -82 -247 -82q-120 0 -191.5 50.5t-71.5 151.5v351h184v-291q0 -61 38.5 -88.5t112.5 -27.5q73 0 125 35t52 112v260h184v-539h-181v68zM757 -131v-95q-39 -9 -103 -9q-100 0 -151 28.5t-51 80.5q0 31 24 61t69.5 51.5t106.5 28.5l105 -15
q-131 -36 -131 -98q0 -22 18 -31.5t45 -9.5q25 0 68 8z" />
    <glyph glyph-name="Wcircumflex" unicode="&#x174;" horiz-adv-x="1218" 
d="M755 0l-143 489h-5l-144 -489h-229l-226 714h207l140 -496h6l144 496h210l145 -496h5l140 496h205l-228 -714h-227zM613 852h-6l-62 -76h-196l135 149h252l135 -149h-196z" />
    <glyph glyph-name="wcircumflex" unicode="&#x175;" horiz-adv-x="1172" 
d="M924 0h-200l-133 349h-5l-133 -349h-201l-237 539h205l136 -347h6l132 346h187l135 -346h6l130 347h204zM590 674h-6l-62 -76h-196l135 149h252l135 -149h-196z" />
    <glyph glyph-name="Ycircumflex" unicode="&#x176;" horiz-adv-x="914" 
d="M551 250v-250h-188v248l-361 466h229l226 -306l229 306h226zM462 852h-6l-62 -76h-196l135 149h252l135 -149h-196z" />
    <glyph glyph-name="ycircumflex" unicode="&#x177;" horiz-adv-x="797" 
d="M486 -25q-37 -70 -74.5 -107t-87 -51.5t-128.5 -14.5q-70 0 -121 3v150q41 -3 98 -3q42 0 65.5 8.5t36.5 31.5l15 29l-279 518h211l173 -354h6l174 354h211zM401 674h-6l-62 -76h-196l135 149h252l135 -149h-196z" />
    <glyph glyph-name="Ydieresis" unicode="&#x178;" horiz-adv-x="914" 
d="M551 250v-250h-188v248l-361 466h229l226 -306l229 306h226zM234 894h175v-116h-175v116zM509 894h175v-116h-175v116z" />
    <glyph glyph-name="Zacute" unicode="&#x179;" horiz-adv-x="882" 
d="M338 155h492v-155h-784v147l491 412h-463v155h755v-147zM531 776h-159l82 149h256z" />
    <glyph glyph-name="zacute" unicode="&#x17a;" horiz-adv-x="752" 
d="M33 0v136l378 272h-357v131h654v-134l-379 -274h379v-131h-675zM461 598h-159l82 149h256z" />
    <glyph glyph-name="Zdotaccent" unicode="&#x17b;" horiz-adv-x="882" 
d="M338 155h492v-155h-784v147l491 412h-463v155h755v-147zM358 894h188v-116h-188v116z" />
    <glyph glyph-name="zdotaccent" unicode="&#x17c;" horiz-adv-x="752" 
d="M33 0v136l378 272h-357v131h654v-134l-379 -274h379v-131h-675zM287 728h188v-116h-188v116z" />
    <glyph glyph-name="Zcaron" unicode="&#x17d;" horiz-adv-x="882" 
d="M338 155h492v-155h-784v147l491 412h-463v155h755v-147zM713 925l-135 -149h-252l-135 149h196l62 -76h6l62 76h196z" />
    <glyph glyph-name="zcaron" unicode="&#x17e;" horiz-adv-x="752" 
d="M33 0v136l378 272h-357v131h654v-134l-379 -274h379v-131h-675zM642 747l-135 -149h-252l-135 149h196l62 -76h6l62 76h196z" />
    <glyph glyph-name="florin" unicode="&#x192;" horiz-adv-x="584" 
d="M456.5 612q-25.5 -14 -34.5 -59l-16 -85h139v-115h-162l-39 -201q-14 -70 -48.5 -107.5t-88 -51t-135.5 -13.5q-21 0 -66 3v124q6 -1 20.5 -2.5t33.5 -1.5q42 0 67.5 14t34.5 60l34 176h-110v115h132l22 109q14 70 48.5 108t88 51.5t135.5 13.5q35 0 65 -4v-124
q-26 4 -53 4q-42 0 -67.5 -14z" />
    <glyph glyph-name="Oslashacute" unicode="&#x1fe;" horiz-adv-x="1026" 
d="M983 357q0 -188 -123.5 -283t-346.5 -95q-184 0 -300 64l-96 -83l-71 55l95 81q-98 95 -98 261q0 188 123.5 283t346.5 95q184 0 300 -64l96 83l71 -55l-95 -81q98 -95 98 -261zM317.5 524.5q-67.5 -57.5 -67.5 -167.5q0 -83 37 -135l384 328q-62 32 -158 32
q-128 0 -195.5 -57.5zM708.5 189.5q67.5 57.5 67.5 167.5q0 83 -37 135l-384 -328q62 -32 158 -32q128 0 195.5 57.5zM607.098 776h-189.055l97.5 149h304.391z" />
    <glyph glyph-name="oslashacute" unicode="&#x1ff;" horiz-adv-x="832" 
d="M793 270q0 -140 -94 -215t-283 -75q-154 0 -248 51l-64 -50l-57 40l65 52q-73 72 -73 197q0 139 94 214.5t283 75.5q155 0 248 -52l64 51l57 -41l-65 -51q73 -73 73 -197zM232 270q0 -51 21 -87l276 219q-43 23 -113 23q-184 0 -184 -155zM600 270q0 52 -21 86l-276 -219
q43 -23 113 -23q184 0 184 156zM495 598h-159l82 149h256z" />
    <glyph glyph-name="Scommaaccent" unicode="&#x218;" horiz-adv-x="915" 
d="M581.5 578q-50.5 23 -145.5 23q-91 0 -134 -20t-43 -60q0 -32 24 -45.5t79 -19.5l276 -24q118 -11 178.5 -61t60.5 -154q0 -91 -49.5 -143.5t-142.5 -73.5t-236 -21q-138 0 -229 22.5t-141.5 79.5t-53.5 158h214q8 -71 61.5 -97.5t156.5 -26.5q102 0 151 22t49 67
q0 38 -25.5 54.5t-74.5 21.5l-271 27q-119 12 -180 58t-61 145q0 121 103 173t295 52q193 0 299 -53t110 -184h-214q-6 57 -56.5 80zM515 -148q0 -54 -12 -81.5t-52 -41.5t-124 -14v52q37 0 55 6.5t23.5 18t5.5 30.5h-84v116h188v-86z" />
    <glyph glyph-name="scommaaccent" unicode="&#x219;" horiz-adv-x="787" 
d="M481 430.5q-39 14.5 -113 14.5q-69 0 -99 -12.5t-30 -36.5q0 -20 15.5 -29t54.5 -12l245 -21q98 -9 146.5 -46.5t48.5 -124.5q0 -73 -40.5 -113t-117.5 -55t-202 -15q-120 0 -197 15.5t-121 58t-47 122.5h204q8 -45 48 -62.5t123 -17.5q80 0 113.5 14t33.5 44
q0 22 -16 32t-53 14l-232 23q-101 11 -152 47t-51 116q0 99 82.5 136.5t249.5 37.5q169 0 259 -39t94 -142h-201q-6 37 -45 51.5zM483 -148q0 -54 -12 -81.5t-52 -41.5t-124 -14v52q37 0 55 6.5t23.5 18t5.5 30.5h-84v116h188v-86z" />
    <glyph glyph-name="uni021A" unicode="&#x21a;" horiz-adv-x="891" 
d="M859 559h-320v-559h-188v559h-319v155h827v-155zM539 -148q0 -54 -12 -81.5t-52 -41.5t-124 -14v52q37 0 55 6.5t23.5 18t5.5 30.5h-84v116h188v-86z" />
    <glyph glyph-name="uni021B" unicode="&#x21b;" horiz-adv-x="519" 
d="M480 144v-144q-22 -3 -59 -6t-68 -3q-90 0 -139.5 15.5t-70 51t-20.5 97.5v270h-109v114h109v147h185v-147h174v-114h-174v-237q0 -28 17.5 -39t59.5 -11q55 0 95 6zM364 -148q0 -54 -12 -81.5t-52 -41.5t-124 -14v52q37 0 55 6.5t23.5 18t5.5 30.5h-84v116h188v-86z" />
    <glyph glyph-name="uni0237" unicode="&#x237;" horiz-adv-x="306" 
d="M42.5 -38.5q19.5 10.5 19.5 39.5v538h184v-584q0 -60 -22 -93t-71 -46.5t-137 -13.5q-75 0 -106 4v147q24 -2 70 -2q43 0 62.5 10.5z" />
    <glyph glyph-name="uni02BC" unicode="&#x2bc;" horiz-adv-x="328" 
d="M259 608q0 -110 -44.5 -156.5t-145.5 -46.5v62q48 0 68 27t20 77h-88v153h190v-116z" />
    <glyph glyph-name="circumflex" unicode="&#x2c6;" horiz-adv-x="660" 
d="M333 674h-6l-62 -76h-196l135 149h252l135 -149h-196z" />
    <glyph glyph-name="caron" unicode="&#x2c7;" horiz-adv-x="660" 
d="M591 747l-135 -149h-252l-135 149h196l62 -76h6l62 76h196z" />
    <glyph glyph-name="breve" unicode="&#x2d8;" horiz-adv-x="580" 
d="M447.5 628q-62.5 -41 -157.5 -41q-96 0 -158 41t-63 120h149q6 -50 72 -50q65 0 72 50h149q-1 -79 -63.5 -120z" />
    <glyph glyph-name="dotaccent" unicode="&#x2d9;" horiz-adv-x="326" 
d="M69 728h188v-116h-188v116z" />
    <glyph glyph-name="ring" unicode="&#x2da;" horiz-adv-x="465" 
d="M116 624q-47 36 -47 95t47 95t116 36q70 0 117 -36t47 -95t-47 -95t-117 -36q-69 0 -116 36zM272.5 683.5q16.5 13.5 16.5 35.5t-16.5 35t-40.5 13t-40.5 -13t-16.5 -35t16.5 -35.5t40.5 -13.5t40.5 13.5z" />
    <glyph glyph-name="ogonek" unicode="&#x2db;" horiz-adv-x="442" 
d="M374 -131v-95q-39 -9 -103 -9q-100 0 -151 28.5t-51 80.5q0 31 24 61t69.5 51.5t106.5 28.5l105 -15q-131 -36 -131 -98q0 -22 18 -31.5t45 -9.5q25 0 68 8z" />
    <glyph glyph-name="tilde" unicode="&#x2dc;" horiz-adv-x="628" 
d="M365 589.5q-26 7.5 -65 22.5q-20 8 -40 14.5t-32 6.5q-18 0 -24 -8.5t-7 -32.5h-128q0 55 21 91t53.5 53t67.5 17q25 0 51 -7.5t65 -22.5q21 -8 41 -14.5t31 -6.5q18 0 24.5 8.5t7.5 31.5h128q0 -55 -21.5 -91t-54.5 -52.5t-68 -16.5q-24 0 -50 7.5z" />
    <glyph glyph-name="hungarumlaut" unicode="&#x2dd;" horiz-adv-x="681" 
d="M222 598h-153l72 149h207zM486 598h-153l73 149h207z" />
    <glyph glyph-name="uni0326" unicode="&#x326;" horiz-adv-x="0" 
d="M-69 -148q0 -54 -12 -81.5t-52 -41.5t-124 -14v52q37 0 55 6.5t23.5 18t5.5 30.5h-84v116h188v-86z" />
    <glyph glyph-name="Wgrave" unicode="&#x1e80;" horiz-adv-x="1218" 
d="M755 0l-143 489h-5l-144 -489h-229l-226 714h207l140 -496h6l144 496h210l145 -496h5l140 496h205l-228 -714h-227zM607 925l83 -149h-160l-178 149h255z" />
    <glyph glyph-name="wgrave" unicode="&#x1e81;" horiz-adv-x="1172" 
d="M924 0h-200l-133 349h-5l-133 -349h-201l-237 539h205l136 -347h6l132 346h187l135 -346h6l130 347h204zM584 747l83 -149h-160l-178 149h255z" />
    <glyph glyph-name="Wacute" unicode="&#x1e82;" horiz-adv-x="1218" 
d="M755 0l-143 489h-5l-144 -489h-229l-226 714h207l140 -496h6l144 496h210l145 -496h5l140 496h205l-228 -714h-227zM689 776h-159l82 149h256z" />
    <glyph glyph-name="wacute" unicode="&#x1e83;" horiz-adv-x="1172" 
d="M924 0h-200l-133 349h-5l-133 -349h-201l-237 539h205l136 -347h6l132 346h187l135 -346h6l130 347h204zM667 598h-159l82 149h256z" />
    <glyph glyph-name="Wdieresis" unicode="&#x1e84;" horiz-adv-x="1218" 
d="M755 0l-143 489h-5l-144 -489h-229l-226 714h207l140 -496h6l144 496h210l145 -496h5l140 496h205l-228 -714h-227zM385 894h175v-116h-175v116zM660 894h175v-116h-175v116z" />
    <glyph glyph-name="wdieresis" unicode="&#x1e85;" horiz-adv-x="1172" 
d="M924 0h-200l-133 349h-5l-133 -349h-201l-237 539h205l136 -347h6l132 346h187l135 -346h6l130 347h204zM362 728h175v-116h-175v116zM637 728h175v-116h-175v116z" />
    <glyph glyph-name="Ygrave" unicode="&#x1ef2;" horiz-adv-x="914" 
d="M551 250v-250h-188v248l-361 466h229l226 -306l229 306h226zM456 925l83 -149h-160l-178 149h255z" />
    <glyph glyph-name="ygrave" unicode="&#x1ef3;" horiz-adv-x="797" 
d="M486 -25q-37 -70 -74.5 -107t-87 -51.5t-128.5 -14.5q-70 0 -121 3v150q41 -3 98 -3q42 0 65.5 8.5t36.5 31.5l15 29l-279 518h211l173 -354h6l174 354h211zM395 747l83 -149h-160l-178 149h255z" />
    <glyph glyph-name="uni2007" unicode="&#x2007;" horiz-adv-x="307" 
 />
    <glyph glyph-name="uni2008" unicode="&#x2008;" horiz-adv-x="259" 
 />
    <glyph glyph-name="uni200B" unicode="&#x200b;" horiz-adv-x="0" 
 />
    <glyph glyph-name="endash" unicode="&#x2013;" horiz-adv-x="728" 
d="M49 226v125h630v-125h-630z" />
    <glyph glyph-name="emdash" unicode="&#x2014;" horiz-adv-x="952" 
d="M49 226v125h854v-125h-854z" />
    <glyph glyph-name="quoteleft" unicode="&#x2018;" horiz-adv-x="284" 
d="M42 500q0 113 48 163t151 51v-69q-45 0 -65.5 -28.5t-20.5 -75.5h86v-156h-199v115z" />
    <glyph glyph-name="quoteright" unicode="&#x2019;" horiz-adv-x="284" 
d="M241 600q0 -114 -47.5 -164t-150.5 -51v69q44 1 65 29.5t21 75.5h-87v155h199v-114z" />
    <glyph glyph-name="quotesinglbase" unicode="&#x201a;" horiz-adv-x="284" 
d="M241 41q0 -113 -47.5 -163.5t-150.5 -50.5v68q44 1 65 29.5t21 75.5h-87v155h199v-114z" />
    <glyph glyph-name="quotedblleft" unicode="&#x201c;" horiz-adv-x="563" 
d="M42 500q0 113 48 163t151 51v-69q-45 0 -65.5 -28.5t-20.5 -75.5h86v-156h-199v115zM321 500q0 113 48 163t151 51v-69q-45 0 -65.5 -28.5t-20.5 -75.5h86v-156h-199v115z" />
    <glyph glyph-name="quotedblright" unicode="&#x201d;" horiz-adv-x="563" 
d="M241 600q0 -114 -47.5 -164t-150.5 -51v69q44 1 65 29.5t21 75.5h-87v155h199v-114zM520 600q0 -114 -47.5 -164t-150.5 -51v69q44 1 65 29.5t21 75.5h-87v155h199v-114z" />
    <glyph glyph-name="quotedblbase" unicode="&#x201e;" horiz-adv-x="563" 
d="M241 41q0 -113 -47.5 -163.5t-150.5 -50.5v68q44 1 65 29.5t21 75.5h-87v155h199v-114zM520 41q0 -113 -47.5 -163.5t-150.5 -50.5v68q44 1 65 29.5t21 75.5h-87v155h199v-114z" />
    <glyph glyph-name="dagger" unicode="&#x2020;" horiz-adv-x="682" 
d="M648 357h-220v-539h-174v539h-220v147h220v210h174v-210h220v-147z" />
    <glyph glyph-name="daggerdbl" unicode="&#x2021;" horiz-adv-x="682" 
d="M428 364v-196h220v-140h-220v-210h-174v210h-220v140h220v196h-220v140h220v210h174v-210h220v-140h-220z" />
    <glyph glyph-name="bullet" unicode="&#x2022;" horiz-adv-x="797" 
d="M130 132.5q-94 75.5 -94 214.5t94 214.5t269 75.5t268.5 -75.5t93.5 -214.5t-93.5 -214.5t-268.5 -75.5t-269 75.5z" />
    <glyph glyph-name="ellipsis" unicode="&#x2026;" horiz-adv-x="1010" 
d="M65 181h207v-181h-207v181zM402 181h207v-181h-207v181zM738 181h207v-181h-207v181z" />
    <glyph glyph-name="perthousand" unicode="&#x2030;" horiz-adv-x="1611" 
d="M474 511q0 -203 -218 -203t-218 203t218 203t218 -203zM840 700l-441 -700h-118l441 700h118zM318.5 429.5q21.5 24.5 21.5 81.5t-21.5 81.5t-62.5 24.5t-62.5 -24.5t-21.5 -81.5t21.5 -81.5t62.5 -24.5t62.5 24.5zM1083 189q0 -203 -218 -203q-217 0 -217 203t217 203
q218 0 218 -203zM1573 189q0 -203 -218 -203q-217 0 -217 203t217 203q218 0 218 -203zM927.5 107.5q21.5 24.5 21.5 81.5t-21.5 81.5t-62.5 24.5q-84 0 -84 -106t84 -106q41 0 62.5 24.5zM1417.5 107.5q21.5 24.5 21.5 81.5t-21.5 81.5t-62.5 24.5q-84 0 -84 -106t84 -106
q41 0 62.5 24.5z" />
    <glyph glyph-name="guilsinglleft" unicode="&#x2039;" horiz-adv-x="282" 
d="M239 517v-160l-112 -82v-5l112 -83v-159l-196 147v194z" />
    <glyph glyph-name="guilsinglright" unicode="&#x203a;" horiz-adv-x="282" 
d="M43 517v-160l112 -82v-5l-112 -83v-159l196 147v194z" />
    <glyph glyph-name="uni2070" unicode="&#x2070;" horiz-adv-x="605" 
d="M496 670q66 -55 66 -165q0 -109 -66.5 -164t-193.5 -55t-193 55t-66 164q0 110 66 165t193 55q128 0 194 -55zM432 505q0 128 -130 128q-129 0 -129 -128q0 -62 32 -94.5t97 -32.5q130 0 130 127z" />
    <glyph glyph-name="franc" unicode="&#x20a3;" horiz-adv-x="809" 
d="M271 553v-154h472v-136h-472v-65h216v-77h-216v-121h-184v121h-60v77h60v502h677v-147h-493z" />
    <glyph glyph-name="Euro" unicode="&#x20ac;" horiz-adv-x="915" 
d="M425 164q61 -29 147 -29q135 0 251 67v-170q-50 -22 -116 -32.5t-135 -10.5q-177 0 -293 65.5t-149 195.5h-103l53 70h39l-1 30l1 30h-92l53 70h50q33 129 149 195t292 66q92 0 173 -21.5t134 -58.5l-94 -123q-94 57 -213 57q-85 0 -146 -29t-89 -86h405l-54 -70h-371
q-2 -20 -2 -30t2 -30h326l-53 -70h-253q28 -57 89 -86z" />
    <glyph glyph-name="uni2116" unicode="&#x2116;" horiz-adv-x="1480" 
d="M901 714v-714h-216l-432 490h-5v-490h-179v714h221l426 -484h5v484h180zM1391 678.5q56 -45.5 56 -128.5q0 -85 -56 -130.5t-167 -45.5q-112 0 -167.5 45.5t-55.5 130.5q0 83 56 128.5t167 45.5t167 -45.5zM1292.5 485.5q23.5 22.5 23.5 64.5q0 40 -23.5 62.5t-68.5 22.5
q-46 0 -69 -22t-23 -63q0 -42 23 -64.5t69 -22.5q45 0 68.5 22.5zM1447 109v-109h-446v109h446z" />
    <glyph glyph-name="trademark" unicode="&#x2122;" horiz-adv-x="985" 
d="M417 627h-142v-271h-101v271h-142v87h385v-87zM954 356h-102v256h-6l-96 -256h-82l-99 260h-5v-260h-97v358h162l78 -222h5l76 222h166v-358z" />
    <glyph glyph-name="uni2126" unicode="&#x2126;" horiz-adv-x="1039" 
d="M43 117h231v5q-98 21 -162 90t-64 183q0 107 59 184t165.5 116.5t246.5 39.5t246.5 -39.5t166 -116.5t59.5 -184q0 -114 -64 -183t-162 -90v-5h231v-117h-423v161q97 16 154.5 73.5t57.5 143.5q0 94 -73 148t-193 54t-192.5 -53.5t-72.5 -148.5q0 -86 57.5 -143.5
t154.5 -73.5v-161h-423v117z" />
    <glyph glyph-name="partialdiff" unicode="&#x2202;" horiz-adv-x="826" 
d="M667 664q120 -82 120 -303q0 -205 -105.5 -293.5t-297.5 -88.5q-94 0 -172 25.5t-125.5 80t-47.5 137.5q0 138 100.5 198.5t246.5 60.5q123 0 198 -39q-19 96 -79.5 131t-148.5 35q-57 0 -112.5 -15t-100.5 -41l-52 127q54 32 127.5 49.5t155.5 17.5q173 0 293 -82z
M528.5 157.5q50.5 46.5 60.5 145.5q-59 46 -166 46q-91 0 -141 -29.5t-50 -97.5q0 -56 41.5 -83.5t109.5 -27.5q95 0 145.5 46.5z" />
    <glyph glyph-name="emptyset" unicode="&#x2205;" horiz-adv-x="866" 
d="M768 502.5q30 -68.5 30 -145.5q0 -99 -49 -183t-133 -133t-183 -49q-101 0 -186 51l-38 -51h-102l75 100q-54 51 -84 119.5t-30 145.5q0 99 49 183t133 133t183 49t187 -51l38 51h102l-76 -100q54 -51 84 -119.5zM180.5 251q19.5 -50 55.5 -89l332 440q-62 37 -135 37
q-74 0 -136.5 -38t-99 -102.5t-36.5 -141.5q0 -56 19.5 -106zM569.5 113q62.5 38 99 102.5t36.5 141.5q0 55 -19.5 105t-54.5 89l-332 -440q61 -36 134 -36q74 0 136.5 38z" />
    <glyph glyph-name="uni2206" unicode="&#x2206;" horiz-adv-x="978" 
d="M970 0h-962l362 714h240zM695 135l-204 417h-6l-203 -417h413z" />
    <glyph glyph-name="product" unicode="&#x220f;" horiz-adv-x="970" 
d="M713 -148v702h-456v-702h-188v862h832v-862h-188z" />
    <glyph glyph-name="summation" unicode="&#x2211;" horiz-adv-x="880" 
d="M828 -148h-759v133l343 299l-324 299v131h719v-157h-439l282 -261l-329 -287h507v-157z" />
    <glyph glyph-name="minus" unicode="&#x2212;" horiz-adv-x="667" 
d="M598 263h-528v126h528v-126z" />
    <glyph glyph-name="uni2219" unicode="&#x2219;" horiz-adv-x="350" 
d="M101 244q-31 31 -31 75t31 74.5t74 30.5q44 0 74.5 -30.5t30.5 -74.5t-31 -75t-74 -31t-74 31z" />
    <glyph glyph-name="radical" unicode="&#x221a;" horiz-adv-x="693" 
d="M390 -148h-131l-125 340l-74 -33l-28 56l178 77l121 -331h2l236 739h92z" />
    <glyph glyph-name="infinity" unicode="&#x221e;" horiz-adv-x="867" 
d="M747 443.5q51 -52.5 51 -136.5q0 -89 -50.5 -141t-136.5 -52q-103 0 -184 97q-83 -97 -174 -97q-85 0 -134 52t-49 141q0 84 49.5 136.5t133.5 52.5q105 0 183 -97q38 44 80 70.5t95 26.5q85 0 136 -52.5zM318.5 231.5q26.5 20.5 54.5 63.5q-33 56 -58.5 80.5t-59.5 24.5
q-38 0 -58.5 -26.5t-20.5 -66.5q0 -41 21 -68.5t58 -27.5t63.5 20.5zM668.5 238.5q21.5 27.5 21.5 68.5t-21 67t-60 26q-37 0 -63.5 -20.5t-54.5 -63.5q31 -55 57 -80t61 -25q38 0 59.5 27.5z" />
    <glyph glyph-name="integral" unicode="&#x222b;" horiz-adv-x="521" 
d="M468.5 747q24.5 -3 30.5 -4v-122q-39 3 -55 3q-51 0 -71.5 -14t-20.5 -56v-570q0 -96 -59 -134t-179 -38q-38 0 -62.5 3t-30.5 4v122q6 0 20.5 -2t34.5 -2q51 0 71.5 14t20.5 57v570q0 95 59.5 133.5t178.5 38.5q38 0 62.5 -3z" />
    <glyph glyph-name="approxequal" unicode="&#x2248;" horiz-adv-x="667" 
d="M532.5 463q29.5 20 65.5 60v-133q-59 -67 -125 -67q-32 0 -57 8.5t-52 21.5l-72 36q-27 14 -48.5 21.5t-48.5 7.5q-57 0 -125 -85v133q26 34 58 53t67 19q30 0 53.5 -8t51.5 -22l72 -36q27 -13 49.5 -21t51.5 -8q30 0 59.5 20zM532 251q29 20 66 60v-132
q-60 -68 -125 -68q-32 0 -56 8.5t-53 22.5l-72 36q-27 14 -48.5 21.5t-48.5 7.5q-57 0 -125 -85v132q26 35 58 54t67 19q30 0 53.5 -8t51.5 -22l72 -36q29 -14 50.5 -22t50.5 -8q30 0 59 20z" />
    <glyph glyph-name="notequal" unicode="&#x2260;" horiz-adv-x="667" 
d="M429 370l-61 -91h230v-127h-315l-57 -84h-130l57 84h-83v127h168l61 91h-229v127h314l57 85h130l-57 -85h84v-127h-169z" />
    <glyph glyph-name="lessequal" unicode="&#x2264;" horiz-adv-x="667" 
d="M70 315l526 -166v121l-318 96v6l318 96v121l-526 -166v-108zM69 113v-113h528v113h-528z" />
    <glyph glyph-name="greaterequal" unicode="&#x2265;" horiz-adv-x="667" 
d="M597 315l-526 -166v121l318 96v6l-318 96v121l526 -166v-108zM598 113v-113h-528v113h528z" />
    <glyph glyph-name="lozenge" unicode="&#x25ca;" horiz-adv-x="760" 
d="M691 358l-258 -388h-106l-258 388l258 388h106zM572 358l-191 298l-192 -298l192 -296z" />
    <glyph glyph-name="T.ss01" horiz-adv-x="891" 
d="M859 559h-320v-559h-188v559h-319v155h827v-155z" />
    <glyph glyph-name="i.loclTRK" horiz-adv-x="304" 
d="M60 539h184v-539h-184v539zM58 728h188v-116h-188v116z" />
    <glyph glyph-name="T_h" horiz-adv-x="1615" 
d="M1483.5 502.5q71.5 -50.5 71.5 -151.5v-351h-184v291q0 61 -38.5 89t-112.5 28q-72 0 -124.5 -35.5t-52.5 -111.5v-261h-184v559h-320v-559h-188v559h-319v155h827v10h184v-253h6q86 82 243 82q120 0 191.5 -50.5z" />
    <glyph glyph-name="T_i" horiz-adv-x="1106" 
d="M1046 728v-116h-187v-53h-320v-559h-188v559h-319v155h825v14h189zM859 539h185v-539h-185v539z" />
    <glyph glyph-name="f_i" horiz-adv-x="806" 
d="M337 608q-26 -15 -26 -54q0 -9 1 -15h172v-114h-172v-425h-185v425h-109v114h109v38q0 96 66 134t201 38q62 0 104 -7v-123q-8 1 -26.5 2.5t-41.5 1.5q-67 0 -93 -15zM562 539h184v-539h-184v539zM560 728h188v-116h-188v116z" />
    <glyph glyph-name="f_l" horiz-adv-x="828" 
d="M337 608q-26 -15 -26 -54q0 -9 1 -15h172v-114h-172v-425h-185v425h-109v114h109v38q0 96 66 134t201 38q62 0 104 -7v-123q-8 1 -26.5 2.5t-41.5 1.5q-67 0 -93 -15zM584 724h184v-724h-184v724z" />
    <glyph glyph-name="f_t" horiz-adv-x="978" 
d="M337 608q-26 -15 -26 -54q0 -9 1 -15h172v-114h-172v-425h-185v425h-109v114h109v38q0 96 66 134t201 38q62 0 104 -7v-123q-8 1 -26.5 2.5t-41.5 1.5q-67 0 -93 -15zM939 144v-144q-22 -3 -59 -6t-68 -3q-90 0 -139.5 15.5t-70 51t-20.5 97.5v270h-109v114h109v147h185
v-147h174v-114h-174v-237q0 -28 17.5 -39t59.5 -11q55 0 95 6z" />
    <glyph glyph-name="caroncomb.alt" horiz-adv-x="0" 
d="M-69 608q0 -110 -44.5 -156.5t-145.5 -46.5v62q48 0 68 27t20 77h-88v153h190v-116z" />
    <glyph glyph-name="uni0326.001" horiz-adv-x="0" 
d="M-69 -148q0 -54 -12 -81.5t-52 -41.5t-124 -14v52q37 0 55 6.5t23.5 18t5.5 30.5h-84v116h188v-86z" />
    <glyph glyph-name="uni0326.case.001" horiz-adv-x="0" 
d="M-69 -148q0 -54 -12 -81.5t-52 -41.5t-124 -14v52q37 0 55 6.5t23.5 18t5.5 30.5h-84v116h188v-86z" />
    <glyph glyph-name="uni0326.002" horiz-adv-x="0" 
d="M-69 -148q0 -54 -12 -81.5t-52 -41.5t-124 -14v52q37 0 55 6.5t23.5 18t5.5 30.5h-84v116h188v-86z" />
    <glyph glyph-name="uni0326.case" horiz-adv-x="0" 
d="M-69 -148q0 -54 -12 -81.5t-52 -41.5t-124 -14v52q37 0 55 6.5t23.5 18t5.5 30.5h-84v116h188v-86z" />
    <glyph glyph-name="acute.001" horiz-adv-x="476" 
d="M228 598h-159l82 149h256z" />
    <glyph glyph-name="breve.001" horiz-adv-x="580" 
d="M478 659q-32 -36 -82 -54t-106 -18t-106 18t-82 54t-33 89h149q6 -50 72 -50q65 0 72 50h149q-1 -53 -33 -89z" />
    <glyph glyph-name="caron.001" horiz-adv-x="660" 
d="M591 747l-135 -149h-252l-135 149h196l62 -76h6l62 76h196z" />
    <glyph glyph-name="acute.case.001" horiz-adv-x="476" 
d="M228 776h-159l82 149h256z" />
    <glyph glyph-name="breve.case.001" horiz-adv-x="580" 
d="M478 837q-32 -36 -82 -54t-106 -18t-106 18t-82 54t-33 89h149q6 -50 72 -50q65 0 72 50h149q-1 -53 -33 -89z" />
    <glyph glyph-name="caron.case.001" horiz-adv-x="660" 
d="M591 925l-135 -149h-252l-135 149h196l62 -76h6l62 76h196z" />
    <glyph glyph-name="circumflex.case.001" horiz-adv-x="660" 
d="M333 852h-6l-62 -76h-196l135 149h252l135 -149h-196z" />
    <glyph glyph-name="dieresis.case.001" horiz-adv-x="588" 
d="M69 894h175v-116h-175v116zM344 894h175v-116h-175v116z" />
    <glyph glyph-name="dotaccent.case.001" horiz-adv-x="326" 
d="M69 894h188v-116h-188v116z" />
    <glyph glyph-name="grave.case.001" horiz-adv-x="476" 
d="M324 925l83 -149h-160l-178 149h255z" />
    <glyph glyph-name="hungarumlaut.case.001" horiz-adv-x="681" 
d="M222 776h-153l72 149h207zM486 776h-153l73 149h207z" />
    <glyph glyph-name="macron.case.001" horiz-adv-x="580" 
d="M69 780v111h442v-111h-442z" />
    <glyph glyph-name="ring.case.001" horiz-adv-x="465" 
d="M116 780q-47 36 -47 95t47 95t116 36q70 0 117 -36t47 -95t-47 -95t-117 -36q-69 0 -116 36zM272.5 840q16.5 13 16.5 35t-16.5 35t-40.5 13t-40.5 -13t-16.5 -35t16.5 -35t40.5 -13t40.5 13z" />
    <glyph glyph-name="tilde.case.001" horiz-adv-x="628" 
d="M365 766.5q-26 7.5 -65 22.5q-51 22 -72 22q-18 0 -24 -9t-7 -32h-128q0 55 21 91t53.5 53t67.5 17q24 0 49 -7.5t67 -23.5q21 -8 41 -14.5t31 -6.5q18 0 24.5 9t7.5 32h128q0 -55 -21.5 -91t-54.5 -53t-68 -17q-24 0 -50 7.5z" />
    <glyph glyph-name="cedilla.001" horiz-adv-x="493" 
d="M240 -46q14 3 40 3q64 0 104.5 -23t40.5 -76q0 -55 -51.5 -79t-155.5 -24q-89 0 -149 16v77h5q66 -20 135 -20q34 0 50 6.5t16 24.5q0 17 -16.5 24t-49.5 7q-17 0 -44.5 -2.5t-39.5 -5.5h-5v45l85 102h97z" />
    <glyph glyph-name="circumflex.001" horiz-adv-x="660" 
d="M333 674h-6l-62 -76h-196l135 149h252l135 -149h-196z" />
    <glyph glyph-name="dieresis.001" horiz-adv-x="588" 
d="M69 728h175v-116h-175v116zM344 728h175v-116h-175v116z" />
    <glyph glyph-name="dotaccent.001" horiz-adv-x="326" 
d="M69 728h188v-116h-188v116z" />
    <glyph glyph-name="grave.001" horiz-adv-x="476" 
d="M324 747l83 -149h-160l-178 149h255z" />
    <glyph glyph-name="hungarumlaut.001" horiz-adv-x="681" 
d="M222 598h-153l72 149h207zM486 598h-153l73 149h207z" />
    <glyph glyph-name="macron.001" horiz-adv-x="580" 
d="M69 615v111h442v-111h-442z" />
    <glyph glyph-name="ogonek.001" horiz-adv-x="442" 
d="M374 -131v-95q-39 -9 -103 -9q-100 0 -151 28t-51 78q0 30 24 60.5t69.5 53.5t106.5 30l105 -15q-69 -19 -100 -46.5t-31 -54.5q0 -20 18 -29t45 -9q25 0 68 8z" />
    <glyph glyph-name="ring.001" horiz-adv-x="465" 
d="M116 624q-47 36 -47 95t47 95t116 36q70 0 117 -36t47 -95t-47 -95t-117 -36q-69 0 -116 36zM272.5 683.5q16.5 13.5 16.5 35.5t-16.5 35t-40.5 13t-40.5 -13t-16.5 -35t16.5 -35.5t40.5 -13.5t40.5 13.5z" />
    <glyph glyph-name="tilde.001" horiz-adv-x="628" 
d="M365 589.5q-26 7.5 -65 22.5q-20 8 -40 14.5t-32 6.5q-18 0 -24 -8.5t-7 -32.5h-128q0 55 21 91t53.5 53t67.5 17q25 0 51 -7.5t65 -22.5q21 -8 41 -14.5t31 -6.5q18 0 24.5 8.5t7.5 31.5h128q0 -55 -21.5 -91t-54.5 -52.5t-68 -16.5q-24 0 -50 7.5z" />
    <glyph glyph-name="acute.002" horiz-adv-x="476" 
d="M228 598h-159l82 149h256z" />
    <glyph glyph-name="breve.002" horiz-adv-x="580" 
d="M478 659q-32 -36 -82 -54t-106 -18t-106 18t-82 54t-33 89h149q6 -50 72 -50q65 0 72 50h149q-1 -53 -33 -89z" />
    <glyph glyph-name="caron.002" horiz-adv-x="660" 
d="M591 747l-135 -149h-252l-135 149h196l62 -76h6l62 76h196z" />
    <glyph glyph-name="circumflex.002" horiz-adv-x="660" 
d="M333 674h-6l-62 -76h-196l135 149h252l135 -149h-196z" />
    <glyph glyph-name="dotaccent.002" horiz-adv-x="326" 
d="M69 728h188v-116h-188v116z" />
    <glyph glyph-name="tilde.002" horiz-adv-x="628" 
d="M365 589.5q-26 7.5 -65 22.5q-20 8 -40 14.5t-32 6.5q-18 0 -24 -8.5t-7 -32.5h-128q0 55 21 91t53.5 53t67.5 17q25 0 51 -7.5t65 -22.5q21 -8 41 -14.5t31 -6.5q18 0 24.5 8.5t7.5 31.5h128q0 -55 -21.5 -91t-54.5 -52.5t-68 -16.5q-24 0 -50 7.5z" />
    <glyph glyph-name="caron.alt" horiz-adv-x="328" 
d="M259 608q0 -110 -44.5 -156.5t-145.5 -46.5v62q48 0 68 27t20 77h-88v153h190v-116z" />
    <glyph glyph-name="acute.case" horiz-adv-x="476" 
d="M228 776h-159l82 149h256z" />
    <glyph glyph-name="breve.case" horiz-adv-x="580" 
d="M478 837q-32 -36 -82 -54t-106 -18t-106 18t-82 54t-33 89h149q6 -50 72 -50q65 0 72 50h149q-1 -53 -33 -89z" />
    <glyph glyph-name="caron.case" horiz-adv-x="660" 
d="M591 925l-135 -149h-252l-135 149h196l62 -76h6l62 76h196z" />
    <glyph glyph-name="cedilla.case" horiz-adv-x="493" 
d="M240 -46q14 3 40 3q64 0 104.5 -23t40.5 -76q0 -55 -51.5 -79t-155.5 -24q-89 0 -149 16v77h5q66 -20 135 -20q34 0 50 6.5t16 24.5q0 17 -16.5 24t-49.5 7q-17 0 -44.5 -2.5t-39.5 -5.5h-5v45l85 102h97z" />
    <glyph glyph-name="circumflex.case" horiz-adv-x="660" 
d="M333 852h-6l-62 -76h-196l135 149h252l135 -149h-196z" />
    <glyph glyph-name="dieresis.case" horiz-adv-x="588" 
d="M69 894h175v-116h-175v116zM344 894h175v-116h-175v116z" />
    <glyph glyph-name="dotaccent.case" horiz-adv-x="326" 
d="M69 894h188v-116h-188v116z" />
    <glyph glyph-name="grave.case" horiz-adv-x="476" 
d="M324 925l83 -149h-160l-178 149h255z" />
    <glyph glyph-name="hungarumlaut.case" horiz-adv-x="681" 
d="M222 776h-153l72 149h207zM486 776h-153l73 149h207z" />
    <glyph glyph-name="macron.case" horiz-adv-x="580" 
d="M69 780v111h442v-111h-442z" />
    <glyph glyph-name="ogonek.case" horiz-adv-x="442" 
d="M374 -131v-95q-39 -9 -103 -9q-100 0 -151 28.5t-51 80.5q0 31 24 61t69.5 51.5t106.5 28.5l105 -15q-131 -36 -131 -98q0 -22 18 -31.5t45 -9.5q25 0 68 8z" />
    <glyph glyph-name="ring.case" horiz-adv-x="465" 
d="M116 780q-47 36 -47 95t47 95t116 36q70 0 117 -36t47 -95t-47 -95t-117 -36q-69 0 -116 36zM272.5 840q16.5 13 16.5 35t-16.5 35t-40.5 13t-40.5 -13t-16.5 -35t16.5 -35t40.5 -13t40.5 13z" />
    <glyph glyph-name="tilde.case" horiz-adv-x="628" 
d="M365 766.5q-26 7.5 -65 22.5q-51 22 -72 22q-18 0 -24 -9t-7 -32h-128q0 55 21 91t53.5 53t67.5 17q24 0 49 -7.5t67 -23.5q21 -8 41 -14.5t31 -6.5q18 0 24.5 9t7.5 32h128q0 -55 -21.5 -91t-54.5 -53t-68 -17q-24 0 -50 7.5z" />
    </font>
</defs>
</svg>
